<?xml version="1.0" encoding="utf-8"?>
<!-- Generator: Adobe Illustrator 15.1.0, SVG Export Plug-In . SVG Version: 6.00 Build 0)  -->
<!DOCTYPE svg PUBLIC "-//W3C//DTD SVG 1.1//EN" "http://www.w3.org/Graphics/SVG/1.1/DTD/svg11.dtd">
<svg version="1.1" id="Layer_1" xmlns="http://www.w3.org/2000/svg" xmlns:xlink="http://www.w3.org/1999/xlink" x="0px" y="0px"
	 width="148px" height="26px" viewBox="0 0 148 26" enable-background="new 0 0 148 26" xml:space="preserve">
<title>Plusadmin_logo dark</title>
<desc>Created with Sketch.</desc>
<g>
	<g>
		<g>
			<g>
				<g>
					<g>
						<defs>
							<path id="SVGID_1_" d="M15.574,5.082h1.8c4.351,0,7.919,3.569,7.919,7.919v7.918H19.98c-4.656,0-9.616-4.464-11.12-9.986
								c0.111,3.512,1.193,7.176,4.566,9.986h-1.8c-4.351,0-7.919-3.565-7.919-7.918V5.082H9.02c4.656,0,9.615,4.466,11.119,9.988
								C20.029,11.559,18.946,7.895,15.574,5.082 M1.232,2.607v10.394c0,5.716,4.678,10.394,10.395,10.394h16.141V13.001
								c0-5.717-4.678-10.394-10.394-10.394H1.232z"/>
						</defs>
						<clipPath id="SVGID_2_">
							<use xlink:href="#SVGID_1_"  overflow="visible"/>
						</clipPath>
						
							<linearGradient id="SVGID_3_" gradientUnits="userSpaceOnUse" x1="1174.208" y1="-182.7656" x2="1174.2955" y2="-182.7656" gradientTransform="matrix(-302.2244 -257.8459 257.8459 -302.2244 402025.4063 247552.7969)">
							<stop  offset="0" style="stop-color:#48BFAB"/>
							<stop  offset="1" style="stop-color:#93C83E"/>
						</linearGradient>
						<polygon clip-path="url(#SVGID_2_)" fill="url(#SVGID_3_)" points="14.916,40.158 -13.699,14.893 10.086,-14.156 
							39.698,11.108 						"/>
					</g>
				</g>
			</g>
		</g>
	</g>
</g>
<polygon fill="#1B1C1C" points="31.685,4.761 34.772,4.761 42.006,15.886 42.006,4.761 45.224,4.761 45.224,21.667 42.128,21.667 
	34.903,10.576 34.903,21.667 31.685,21.667 "/>
<path fill="#1B1C1C" d="M49.311,9.163h3.172v6.022c0,1.172,0.081,1.986,0.243,2.44c0.161,0.456,0.42,0.81,0.777,1.063
	s0.796,0.379,1.32,0.379c0.521,0,0.965-0.123,1.33-0.373c0.365-0.248,0.635-0.614,0.812-1.098c0.132-0.358,0.196-1.13,0.196-2.312
	V9.163h3.138v5.297c0,2.185-0.173,3.679-0.518,4.483c-0.422,0.979-1.042,1.731-1.862,2.258c-0.82,0.525-1.862,0.788-3.127,0.788
	c-1.372,0-2.479-0.308-3.327-0.921c-0.847-0.611-1.443-1.467-1.787-2.563c-0.246-0.758-0.368-2.137-0.368-4.137L49.311,9.163
	L49.311,9.163z"/>
<polygon fill="#1B1C1C" points="64.415,4.554 67.553,4.554 67.553,9.163 69.414,9.163 69.414,11.864 67.553,11.864 67.553,21.667 
	64.415,21.667 64.415,11.864 62.806,11.864 62.806,9.163 64.415,9.163 "/>
<path fill="#1B1C1C" d="M70.944,9.163h2.689v1.573c0.29-0.62,0.678-1.092,1.161-1.413c0.481-0.322,1.011-0.483,1.586-0.483
	c0.406,0,0.831,0.108,1.274,0.323l-0.977,2.701c-0.367-0.188-0.671-0.277-0.908-0.277c-0.481,0-0.892,0.299-1.224,0.897
	c-0.334,0.597-0.501,1.769-0.501,3.517l0.012,0.608v5.058h-3.114L70.944,9.163L70.944,9.163z"/>
<path fill="#1B1C1C" d="M81.016,4.013c0.549,0,1.021,0.2,1.416,0.599C82.822,5.01,83.02,5.493,83.02,6.06
	c0,0.56-0.191,1.035-0.582,1.431c-0.39,0.394-0.856,0.592-1.398,0.592c-0.559,0-1.033-0.2-1.426-0.604
	c-0.395-0.401-0.592-0.891-0.592-1.465c0-0.552,0.195-1.023,0.584-1.413C79.994,4.208,80.466,4.013,81.016,4.013 M79.445,9.163
	h3.138v12.504h-3.138V9.163z"/>
<path fill="#1B1C1C" d="M95.247,4.335h3.138v17.332h-3.138v-1.321c-0.613,0.582-1.228,1.002-1.845,1.258
	c-0.615,0.256-1.281,0.386-2.002,0.386c-1.616,0-3.012-0.626-4.19-1.88c-1.178-1.252-1.769-2.811-1.769-4.672
	c0-1.931,0.572-3.513,1.711-4.746c1.141-1.235,2.525-1.852,4.156-1.852c0.75,0,1.455,0.143,2.113,0.425
	c0.657,0.285,1.266,0.709,1.824,1.275L95.247,4.335L95.247,4.335L95.247,4.335z M91.949,11.737c-0.971,0-1.775,0.342-2.418,1.027
	c-0.643,0.687-0.963,1.565-0.963,2.638c0,1.08,0.326,1.972,0.979,2.666c0.651,0.697,1.457,1.048,2.411,1.048
	c0.984,0,1.801-0.345,2.452-1.028c0.647-0.688,0.973-1.586,0.973-2.695c0-1.088-0.325-1.969-0.973-2.645
	C93.762,12.075,92.939,11.737,91.949,11.737"/>
<path fill="#1B1C1C" d="M108.016,8.84c1.18,0,2.287,0.295,3.326,0.886c1.039,0.59,1.85,1.391,2.43,2.401
	c0.584,1.013,0.875,2.104,0.875,3.275c0,1.18-0.293,2.283-0.879,3.312c-0.586,1.024-1.385,1.828-2.396,2.406
	c-1.013,0.579-2.127,0.869-3.347,0.869c-1.793,0-3.322-0.64-4.59-1.914c-1.27-1.275-1.903-2.824-1.903-4.648
	c0-1.954,0.718-3.582,2.149-4.885C104.938,9.407,106.383,8.84,108.016,8.84 M108.064,11.794c-0.973,0-1.785,0.34-2.434,1.018
	c-0.648,0.677-0.973,1.545-0.973,2.603c0,1.088,0.318,1.969,0.961,2.646c0.643,0.674,1.451,1.012,2.436,1.012
	c0.982,0,1.799-0.342,2.451-1.024c0.652-0.682,0.979-1.559,0.979-2.632c0-1.072-0.322-1.943-0.963-2.614
	C109.883,12.13,109.063,11.794,108.064,11.794"/>
<path fill="#1B1C1C" d="M130.035,11.691l-2.612,1.437c-0.491-0.514-0.978-0.871-1.457-1.07c-0.479-0.197-1.041-0.297-1.687-0.297
	c-1.174,0-2.12,0.348-2.848,1.048c-0.725,0.7-1.088,1.6-1.088,2.69c0,1.063,0.348,1.933,1.049,2.606
	c0.696,0.672,1.612,1.008,2.75,1.008c1.401,0,2.496-0.479,3.278-1.437l2.476,1.693c-1.342,1.746-3.234,2.616-5.68,2.616
	c-2.197,0-3.921-0.65-5.164-1.952c-1.246-1.304-1.869-2.828-1.869-4.574c0-1.213,0.303-2.325,0.909-3.346
	c0.603-1.018,1.449-1.818,2.531-2.401c1.085-0.583,2.297-0.874,3.64-0.874c1.239,0,2.355,0.248,3.344,0.742
	C128.6,10.075,129.406,10.78,130.035,11.691"/>
<polygon fill="#1B1C1C" points="133.471,4.335 136.607,4.335 136.607,14.318 141.229,9.163 145.17,9.163 139.782,15.154 
	145.813,21.667 141.919,21.667 136.607,15.904 136.607,21.667 133.471,21.667 "/>
</svg>
