<?xml version="1.0" encoding="UTF-8"?>
<svg width="18px" height="24px" viewBox="0 0 18 24" version="1.1" xmlns="http://www.w3.org/2000/svg" xmlns:xlink="http://www.w3.org/1999/xlink">
    <!-- Generator: Sketch 49.3 (51167) - http://www.bohemiancoding.com/sketch -->
    <title>ic-boost</title>
    <desc>Created with Sketch.</desc>
    <defs/>
    <g id="Landing-Page" stroke="none" stroke-width="1" fill="none" fill-rule="evenodd">
        <g id="Desktop-Landing-Page" transform="translate(-985.000000, -3288.000000)" stroke="#54657E" stroke-width="2">
            <g id="Group-31" transform="translate(149.000000, 2975.000000)">
                <g id="portfolio" transform="translate(721.000000, 243.000000)">
                    <g id="diversified-portfolio">
                        <g id="portfolio-icon" transform="translate(99.000000, 57.000000)">
                            <g id="ic-boost" transform="translate(17.000000, 14.000000)">
                                <polyline id="Shape" stroke-linecap="square" points="9 10 6 13 10 13 7 16"/>
                                <path d="M3,3 C3,3 2.3,5.2 0,7 C0,8.9 0,19 0,19 C0,20.7 1.3,22 3,22 L13,22 C14.7,22 16,20.7 16,19 C16,19 16,8.9 16,7 C13.7,5.2 13,3 13,3" id="Shape"/>
                                <rect id="Rectangle-path" stroke-linecap="square" x="1" y="0" width="14" height="3"/>
                            </g>
                        </g>
                    </g>
                </g>
            </g>
        </g>
    </g>
</svg>