<?xml version="1.0" encoding="utf-8"?>
<!-- Generator: Adobe Illustrator 15.1.0, SVG Export Plug-In . SVG Version: 6.00 Build 0)  -->
<!DOCTYPE svg PUBLIC "-//W3C//DTD SVG 1.1//EN" "http://www.w3.org/Graphics/SVG/1.1/DTD/svg11.dtd">
<svg version="1.1" id="Capa_1" xmlns="http://www.w3.org/2000/svg" xmlns:xlink="http://www.w3.org/1999/xlink" x="0px" y="0px"
	 width="50px" height="50px" viewBox="0 0 50 50" enable-background="new 0 0 50 50" xml:space="preserve">
<g>
	<path fill="#FFFFFF" d="M25,5c-0.46,0-0.833-0.374-0.833-0.833V0.833C24.167,0.374,24.54,0,25,0s0.833,0.374,0.833,0.833v3.333
		C25.834,4.626,25.461,5,25,5z"/>
	<path fill="#FFFFFF" d="M17.083,7.121c-0.298,0-0.573-0.158-0.723-0.417l-1.667-2.886c-0.232-0.397-0.099-0.908,0.297-1.14
		s0.908-0.099,1.14,0.297c0.001,0.003,0.003,0.007,0.006,0.009l1.667,2.886c0.23,0.398,0.093,0.909-0.305,1.138
		C17.374,7.083,17.23,7.121,17.083,7.121z"/>
	<path fill="#FFFFFF" d="M11.287,12.917c-0.146,0-0.29-0.039-0.417-0.112l-2.886-1.667c-0.4-0.228-0.54-0.736-0.313-1.137
		c0.228-0.4,0.736-0.54,1.137-0.313c0.003,0.002,0.006,0.003,0.009,0.006l2.886,1.667c0.398,0.23,0.535,0.74,0.305,1.138
		C11.86,12.757,11.585,12.917,11.287,12.917z"/>
	<path fill="#FFFFFF" d="M9.167,20.833H5.833C5.374,20.833,5,20.46,5,20s0.374-0.833,0.833-0.833h3.333C9.627,19.167,10,19.54,10,20
		S9.628,20.833,9.167,20.833z"/>
	<path fill="#FFFFFF" d="M8.403,30.416c-0.46,0-0.833-0.373-0.833-0.833c0-0.298,0.159-0.572,0.417-0.722l2.886-1.666
		c0.396-0.233,0.907-0.101,1.14,0.297c0.232,0.396,0.1,0.908-0.297,1.141c-0.003,0.001-0.007,0.002-0.01,0.006l-2.886,1.666
		C8.692,30.378,8.549,30.416,8.403,30.416z"/>
	<path fill="#FFFFFF" d="M41.598,30.416c-0.146,0-0.291-0.038-0.417-0.111l-2.886-1.666c-0.4-0.229-0.54-0.736-0.313-1.137
		s0.736-0.541,1.137-0.313c0.003,0.001,0.006,0.003,0.01,0.006l2.886,1.666c0.398,0.23,0.535,0.74,0.306,1.139
		C42.171,30.258,41.896,30.416,41.598,30.416z"/>
	<path fill="#FFFFFF" d="M44.166,20.833h-3.333C40.373,20.833,40,20.46,40,20s0.373-0.833,0.833-0.833h3.333
		C44.627,19.167,45,19.54,45,20S44.627,20.833,44.166,20.833z"/>
	<path fill="#FFFFFF" d="M38.713,12.917c-0.459,0-0.833-0.374-0.833-0.833c0-0.297,0.159-0.572,0.417-0.722l2.886-1.667
		c0.396-0.232,0.907-0.099,1.14,0.297c0.232,0.397,0.1,0.908-0.297,1.14c-0.004,0.001-0.008,0.003-0.01,0.006l-2.886,1.667
		C39.003,12.878,38.859,12.917,38.713,12.917z"/>
	<path fill="#FFFFFF" d="M32.916,7.121c-0.459,0-0.832-0.374-0.832-0.834c0-0.146,0.039-0.289,0.111-0.416l1.667-2.886
		c0.228-0.4,0.735-0.54,1.137-0.313c0.399,0.228,0.54,0.736,0.313,1.137c-0.002,0.003-0.003,0.007-0.006,0.01l-1.667,2.886
		C33.49,6.962,33.215,7.121,32.916,7.121z"/>
	<path fill="#FFFFFF" d="M29.166,16.667c-1.84,0-3.333,1.493-3.333,3.333v1.667h-1.667V20c0-1.841-1.492-3.333-3.333-3.333
		S17.5,18.159,17.5,20s1.493,3.333,3.333,3.333H22.5V32.5c0,0.459,0.374,0.833,0.833,0.833s0.833-0.374,0.833-0.833v-9.167h1.667
		V32.5c0,0.459,0.374,0.833,0.833,0.833c0.461,0,0.834-0.374,0.834-0.833v-9.167h1.666c1.842,0,3.334-1.492,3.334-3.333
		S31.008,16.667,29.166,16.667z M19.167,20c0-0.921,0.746-1.667,1.667-1.667c0.92,0,1.667,0.746,1.667,1.667v1.667h-1.667
		C19.914,21.667,19.167,20.92,19.167,20z M29.166,21.667H27.5V20c0-0.921,0.746-1.667,1.666-1.667c0.922,0,1.667,0.746,1.667,1.667
		C30.834,20.92,30.088,21.667,29.166,21.667z"/>
</g>
<path fill="#FFFFFF" d="M25.647,6.683c-7.355-0.354-13.604,5.322-13.957,12.678c-0.203,4.211,1.599,8.27,4.858,10.946
	c0.587,0.459,0.937,1.16,0.952,1.905v1.954c0.004,1.057,0.672,1.995,1.667,2.347V37.5c0.003,0.616,0.234,1.211,0.65,1.666
	c-0.867,0.942-0.867,2.391,0,3.334c-0.927,1.016-0.854,2.59,0.162,3.516c0.461,0.422,1.064,0.652,1.688,0.65
	c0.448,0.012,0.822-0.342,0.833-0.791c0.004-0.175-0.047-0.347-0.148-0.49c-0.026-0.051-0.058-0.099-0.093-0.144
	c-0.068-0.063-0.147-0.114-0.232-0.151c-0.024-0.014-0.048-0.023-0.073-0.033c-0.084-0.031-0.172-0.049-0.262-0.053
	c-0.008,0-0.016-0.004-0.024-0.004c-0.46,0-0.833-0.374-0.833-0.834s0.373-0.834,0.833-0.834H25c0.46,0,0.833-0.373,0.833-0.832
	c0-0.461-0.373-0.834-0.833-0.834h-3.333c-0.46,0-0.833-0.373-0.833-0.833S21.207,40,21.667,40H25c0.46,0,0.833-0.374,0.833-0.834
	S25.46,38.333,25,38.333h-3.333c-0.46,0-0.833-0.374-0.833-0.833v-0.834H25c0.46,0,0.833-0.373,0.833-0.833S25.46,35,25,35h-5
	c-0.46,0-0.833-0.373-0.833-0.834v-1.953c-0.013-1.246-0.587-2.42-1.563-3.196c-4.977-4.091-5.696-11.443-1.605-16.421
	c2.34-2.848,5.888-4.422,9.57-4.246c6.157,0.367,10.993,5.413,11.098,11.579c0.03,3.547-1.564,6.913-4.328,9.136
	c-0.968,0.798-1.521,1.991-1.504,3.244v1.857C30.834,34.626,30.46,35,30,35h-2.5c-0.46,0-0.834,0.373-0.834,0.833
	s0.374,0.833,0.834,0.833h1.666V37.5c0,0.459-0.373,0.833-0.832,0.833H27.5c-0.46,0-0.834,0.373-0.834,0.833S27.04,40,27.5,40h0.834
	c0.459,0,0.832,0.373,0.832,0.832c0,0.461-0.373,0.834-0.832,0.834H27.5c-0.46,0-0.834,0.373-0.834,0.833s0.374,0.833,0.834,0.833
	h0.834c0.459,0,0.832,0.374,0.832,0.834s-0.373,0.833-0.832,0.833h-4.167c-0.46,0-0.833,0.374-0.833,0.833
	c0,0.461,0.373,0.834,0.833,0.834h3.191c-0.46,1.301-1.888,1.984-3.19,1.523c-0.398-0.141-0.755-0.381-1.036-0.696
	c-0.306-0.345-0.833-0.374-1.177-0.068s-0.374,0.833-0.068,1.177l0,0c1.524,1.717,4.151,1.874,5.869,0.35
	c0.709-0.629,1.183-1.482,1.34-2.417c1.305-0.407,2.032-1.797,1.624-3.102c-0.108-0.347-0.292-0.665-0.536-0.934
	c0.866-0.942,0.866-2.391,0-3.333c0.416-0.456,0.646-1.051,0.649-1.667v-0.986c0.995-0.352,1.663-1.29,1.667-2.347v-1.857
	c-0.012-0.748,0.313-1.463,0.884-1.947c3.161-2.541,4.985-6.389,4.949-10.445C38.213,12.868,32.686,7.101,25.647,6.683z"/>
</svg>
