<?xml version="1.0" encoding="utf-8"?>
<!-- Generator: Adobe Illustrator 15.1.0, SVG Export Plug-In . SVG Version: 6.00 Build 0)  -->
<!DOCTYPE svg PUBLIC "-//W3C//DTD SVG 1.1//EN" "http://www.w3.org/Graphics/SVG/1.1/DTD/svg11.dtd">
<svg version="1.1" id="Capa_1" xmlns="http://www.w3.org/2000/svg" xmlns:xlink="http://www.w3.org/1999/xlink" x="0px" y="0px"
	 width="512px" height="512px" viewBox="0 0 512 512" enable-background="new 0 0 512 512" xml:space="preserve">
<g>
	<path fill="#D5D6DB" d="M399.006,294.212c-5.338-15.837-17.521-28.445-32.664-35.519l-64.438-30.104L256,246.562l-45.904-17.972
		l-64.438,30.104c-15.142,7.073-27.325,19.682-32.664,35.519c-1.88,5.581-3.038,11.706-2.777,18.118
		c0.626,15.43,3.085,55.837,4.946,85.585c1.222,19.53,17.42,34.728,36.988,34.728H256h103.85c19.569,0,35.765-15.196,36.987-34.728
		c1.861-29.746,4.32-70.153,4.946-85.585C402.044,305.918,400.888,299.791,399.006,294.212L399.006,294.212z"/>
	<path fill="#2F4859" d="M345.701,339.131l-7.09-0.457c1.379-21.418,2.06-46.563-3.329-70.689
		c-4.608-20.635-16.488-35.28-35.311-43.53c-35.583-15.602-83.179-3.61-93.432,2.328c-19.42,11.244-27.343,27.158-27.343,54.935
		h-7.104c0-30.282,9.236-48.549,30.884-61.08c12.58-7.285,62.322-19.135,99.847-2.689c21.006,9.208,34.259,25.523,39.391,48.489
		C347.799,291.434,347.11,317.212,345.701,339.131z"/>
	<path fill="#F7BE56" d="M217.267,167.656h77.469v97.976h-77.469V167.656L217.267,167.656z"/>
	<path fill="#2D93BA" d="M301.903,228.589L256,246.562l-45.904-17.972l-10.949,5.114v115.541L256,432.643l44.664-65.849
		l10.955-133.665L301.903,228.589z"/>
	<path fill="#E56353" d="M264.267,246.603h-16.532l-8.266,14.318l8.266,14.315h16.532l8.266-14.315L264.267,246.603z"/>
	<path fill="#27A2DB" d="M294.735,211.652l-38.734,34.909l24.959,26.851l20.943-44.825L294.735,211.652z"/>
	<path fill="#27A2DB" d="M217.267,211.652l38.734,34.909l-24.958,26.851l-20.945-44.825L217.267,211.652z"/>
	<path fill="#E56353" d="M278.514,402.394l-22.513,30.249l-22.512-30.249l14.208-128.276h16.608L278.514,402.394z"/>
	<path fill="#EBF0F3" d="M299.839,223.709c0,0,11.768,92.789-43.838,208.934c0,0,45.98-32.155,71.646-115.691l-11.765-21.587
		l18.122-12.201l-16.93-48.099L299.839,223.709z"/>
	<path fill="#EBF0F3" d="M212.514,222.878c0,0-12.118,93.62,43.487,209.765c0,0-45.981-32.155-71.645-115.691l11.763-21.587
		l-18.122-12.201l16.931-48.099L212.514,222.878z"/>
	<g>
		<path fill="#FCD462" d="M328.189,122.645c-4.395-0.995-9.733,6.038-11.924,15.71c-2.191,9.671-0.404,18.319,3.991,19.314
			c4.394,0.996,9.733-6.037,11.925-15.709C334.372,132.288,332.585,123.641,328.189,122.645z"/>
		<path fill="#FCD462" d="M182.921,122.645c4.395-0.995,9.735,6.038,11.926,15.71c2.19,9.671,0.404,18.319-3.992,19.314
			c-4.395,0.996-9.734-6.037-11.925-15.709C176.741,132.288,178.526,123.641,182.921,122.645z"/>
		<ellipse fill="#FCD462" cx="256.221" cy="128.252" rx="71.387" ry="83.472"/>
	</g>
	<g>
		<path fill="#474C5B" d="M292.776,25.938c0,0-21.687-7.994-37.375-5.351c-15.688-2.643-37.375,5.351-37.375,5.351
			c-34.896,20.315-37.779,53.528-34.606,83.266c2.588,24.25,7.475,43.446,9.191,49.704c0.324,1.179,1.215,2.094,2.292,2.165
			c1.653,0.11,2.911-1.583,2.622-3.419c-2.883-18.231,1.219-27.036,4.15-30.808c1.329-1.711,1.447-4.243,0.326-6.139l-3.871-6.549
			c-6.056-10.244-5.191-41.633,11.247-36.016c16.438,5.618,46.026,6.277,46.026,6.277s29.589-0.659,46.028-6.277
			c16.438-5.618,17.301,25.773,11.245,36.016l-3.871,6.547c-1.112,1.883-1.02,4.417,0.303,6.113
			c2.925,3.749,7.04,12.512,4.195,30.687c-0.244,1.57,0.561,3.191,1.923,3.512c1.305,0.307,2.542-0.566,2.924-1.956
			c1.677-6.093,6.624-25.407,9.232-49.858C330.554,79.466,327.671,46.254,292.776,25.938L292.776,25.938z"/>
		<path fill="#474C5B" d="M178.767,294.088c20.908,4.69,32.453,22.211,37.36,56.576c1.565,10.963-0.386,19.38-5.804,25.021
			c-6.303,6.56-15.557,7.266-19.242,7.266c-0.312,0-0.594-0.005-0.842-0.012l0.518-5.049c0.097,0.002,0.198,0.002,0.305,0.002
			c3.054,0,10.697-0.562,15.649-5.751c4.256-4.459,5.739-11.446,4.409-20.764c-4.616-32.313-14.617-48.065-33.332-52.326
			L178.767,294.088z"/>
		<path fill="#474C5B" d="M173.501,299.052c-18.715,4.261-28.716,20.014-33.333,52.326c-1.33,9.319,0.153,16.305,4.407,20.764
			c4.952,5.19,12.594,5.752,15.65,5.752c0.11,0,0.216-0.001,0.315-0.003l0.508,5.053c-0.251,0.008-0.537,0.011-0.854,0.011
			c-3.682,0-12.927-0.708-19.233-7.27c-5.416-5.639-7.369-14.058-5.802-25.022c4.908-34.363,16.453-51.884,37.36-56.574
			L173.501,299.052z"/>
	</g>
	<path fill="#44C4A1" d="M134.878,344.443h7.715c5.027-27.372,14.829-40.802,32.082-44.339h1.941
		c17.253,3.536,27.056,16.967,32.082,44.339h7.714c-5.202-29.451-16.016-45.417-34.432-50.816v-18.526h-12.669v18.526
		C150.895,299.028,140.08,314.992,134.878,344.443z"/>
	<circle fill="#2F4859" cx="190.72" cy="380.788" r="5.346"/>
	<circle fill="#2F4859" cx="161.758" cy="380.788" r="5.346"/>
	<circle fill="#44C4A1" cx="342.238" cy="342.553" r="18.619"/>
	<circle fill="#4D5C7D" cx="342.238" cy="342.553" r="11.937"/>
	<circle fill="#2F4859" cx="342.238" cy="342.553" r="5.874"/>
</g>
<g enable-background="new    ">
	<path d="M165.721,486.5h-3.48v-26.96h4.16l8.84,13.479c2.013,3.054,3.693,5.961,5.04,8.721c-0.267-2.453-0.4-6.106-0.4-10.96
		v-11.24h3.48v26.96h-3.8l-8.76-13.52c-2.2-3.414-3.974-6.427-5.32-9.04c0.16,2.6,0.24,6.267,0.24,11V486.5z"/>
	<path d="M189.561,459.54h3.72v15.72c0,2.813,0.57,4.964,1.71,6.45c1.14,1.487,2.743,2.23,4.81,2.23c2.173,0,3.843-0.74,5.01-2.221
		c1.167-1.479,1.75-3.633,1.75-6.46v-15.72h3.72v15.479c0,3.867-0.927,6.82-2.78,8.86c-1.854,2.04-4.474,3.061-7.86,3.061
		c-3.253,0-5.747-1-7.48-3c-1.733-2-2.6-4.934-2.6-8.801V459.54z"/>
	<path d="M221.84,486.5v-23.84h-8.52v-3.12h20.8v3.12h-8.56v23.84H221.84z"/>
	<path d="M237.121,486.5v-26.6c2.106-0.4,4.453-0.601,7.04-0.601c3.573,0,6.173,0.667,7.8,2c1.627,1.334,2.44,3.134,2.44,5.4
		c0,1.6-0.457,3.003-1.37,4.21c-0.914,1.207-2.177,2.083-3.79,2.63c1.946,0.76,3.267,2.587,3.96,5.479
		c1.093,4.414,1.813,6.907,2.16,7.48h-3.84c-0.374-0.627-0.974-2.76-1.801-6.4c-0.427-1.893-1.06-3.232-1.9-4.02
		c-0.84-0.787-2.033-1.18-3.58-1.18h-3.4v11.6H237.121z M240.84,462.46v9.64h3.72c1.867,0,3.353-0.453,4.46-1.359
		c1.107-0.907,1.66-2.12,1.66-3.641c0-1.612-0.536-2.843-1.61-3.689c-1.073-0.847-2.617-1.271-4.63-1.271
		C242.88,462.14,241.681,462.247,240.84,462.46z"/>
	<path d="M259.4,459.54h3.719v26.96H259.4V459.54z"/>
	<path d="M274.68,486.5v-23.84h-8.52v-3.12h20.799v3.12H278.4v23.84H274.68z"/>
	<path d="M289.959,459.54h3.721v26.96h-3.721V459.54z"/>
	<path d="M324.039,472.74c0,4.319-1.223,7.767-3.67,10.34s-5.584,3.86-9.41,3.86c-3.746,0-6.803-1.271-9.17-3.811
		s-3.549-5.816-3.549-9.83c0-4.2,1.227-7.616,3.68-10.25c2.453-2.633,5.572-3.95,9.359-3.95s6.859,1.271,9.221,3.811
		C322.859,465.45,324.039,468.727,324.039,472.74z M302.119,473.18c0,3.027,0.83,5.577,2.49,7.65s3.803,3.11,6.43,3.11
		c2.721,0,4.906-1.03,6.561-3.091c1.652-2.06,2.48-4.71,2.48-7.949c0-3.014-0.818-5.567-2.451-7.66
		c-1.633-2.094-3.803-3.141-6.51-3.141c-2.746,0-4.934,1.044-6.561,3.131C302.932,467.316,302.119,469.967,302.119,473.18z"/>
	<path d="M332.078,486.5H328.6v-26.96h4.16l8.84,13.479c2.012,3.054,3.693,5.961,5.039,8.721c-0.266-2.453-0.4-6.106-0.4-10.96
		v-11.24h3.48v26.96h-3.799l-8.762-13.52c-2.199-3.414-3.973-6.427-5.318-9.04c0.16,2.6,0.238,6.267,0.238,11V486.5z"/>
</g>
</svg>
