<?xml version="1.0" encoding="utf-8"?>
<!-- Generator: Adobe Illustrator 15.1.0, SVG Export Plug-In . SVG Version: 6.00 Build 0)  -->
<!DOCTYPE svg PUBLIC "-//W3C//DTD SVG 1.1//EN" "http://www.w3.org/Graphics/SVG/1.1/DTD/svg11.dtd">
<svg version="1.1" id="Layer_1" xmlns="http://www.w3.org/2000/svg" xmlns:xlink="http://www.w3.org/1999/xlink" x="0px" y="0px"
	 width="120px" height="35px" viewBox="0 0 120 35" enable-background="new 0 0 120 35" xml:space="preserve">
<rect display="none" fill="#101010" width="120" height="34.537"/>
<g display="none">
	<path display="inline" fill="#FFFFFF" d="M16.339,19.264c1.841,3.422,1.219,5.963-1.868,7.625c-2.958,1.592-5.322,0.741-7.093-2.55
		l-4.011-7.451l1.427-0.769l3.96,7.357c1.344,2.498,3.07,3.181,5.178,2.046c2.034-1.094,2.4-2.848,1.102-5.261l-4.029-7.485
		l1.428-0.769L16.339,19.264z"/>
	<path display="inline" fill="#FFFFFF" d="M29.226,19.956l-1.468,0.59l-2.105-5.228c-0.783-1.945-1.885-2.632-3.305-2.061
		c-0.734,0.296-1.23,0.816-1.488,1.562c-0.258,0.746-0.218,1.539,0.121,2.381l2.104,5.227l-1.468,0.592l-3.69-9.166l1.468-0.592
		l0.612,1.522l0.036-0.015c0.227-1.437,0.996-2.419,2.309-2.947c1.002-0.404,1.899-0.389,2.691,0.045
		c0.792,0.434,1.434,1.263,1.927,2.485L29.226,19.956z"/>
	<path display="inline" fill="#FFFFFF" d="M39.829,16.859l-1.525,0.421l-0.448-1.617l-0.037,0.01
		c-0.367,1.423-1.289,2.339-2.764,2.747c-1.197,0.331-2.271,0.17-3.223-0.484c-0.952-0.654-1.631-1.717-2.038-3.186
		c-0.436-1.575-0.388-2.946,0.143-4.115c0.531-1.168,1.457-1.935,2.778-2.3c1.308-0.362,2.402-0.11,3.282,0.754l0.037-0.011
		l-1.632-5.896l1.525-0.421L39.829,16.859z M37.112,12.975l-0.389-1.404c-0.213-0.769-0.647-1.349-1.302-1.742
		c-0.657-0.392-1.375-0.479-2.156-0.264c-0.931,0.257-1.567,0.801-1.912,1.63c-0.345,0.829-0.35,1.846-0.018,3.049
		c0.304,1.097,0.799,1.893,1.487,2.387c0.688,0.494,1.462,0.622,2.324,0.383c0.849-0.234,1.454-0.732,1.814-1.493
		C37.32,14.759,37.371,13.911,37.112,12.975z"/>
	<path display="inline" fill="#FFFFFF" d="M49.745,10.593l-6.895,1.065c0.194,1.083,0.616,1.877,1.267,2.382
		c0.651,0.506,1.465,0.682,2.445,0.53c1.1-0.17,2.054-0.688,2.864-1.556l0.228,1.469c-0.762,0.756-1.849,1.242-3.26,1.461
		c-1.38,0.213-2.532-0.063-3.458-0.828c-0.926-0.765-1.513-1.951-1.761-3.561c-0.235-1.519,0.004-2.823,0.718-3.914
		c0.713-1.089,1.709-1.733,2.987-1.931s2.33,0.063,3.157,0.781c0.827,0.719,1.354,1.812,1.581,3.28L49.745,10.593z M47.938,9.515
		c-0.146-0.901-0.472-1.57-0.979-2.006c-0.507-0.437-1.142-0.596-1.905-0.478c-0.738,0.114-1.323,0.475-1.756,1.082
		c-0.433,0.607-0.645,1.347-0.633,2.217L47.938,9.515z"/>
	<path display="inline" fill="#FFFFFF" d="M57.152,6.418c-0.288-0.195-0.693-0.277-1.213-0.247c-0.674,0.04-1.219,0.391-1.634,1.053
		c-0.416,0.662-0.591,1.542-0.527,2.641l0.295,5.028l-1.58,0.093l-0.579-9.864l1.58-0.093l0.119,2.032l0.039-0.002
		c0.184-0.707,0.496-1.268,0.935-1.683c0.44-0.416,0.945-0.642,1.518-0.675c0.411-0.023,0.728,0.003,0.952,0.079L57.152,6.418z"/>
	<path display="inline" fill="#FFFFFF" d="M71.98,5.432l-3.546,9.687l-1.638-0.098l-1.611-7.182c-0.061-0.274-0.094-0.582-0.1-0.924
		l-0.038-0.002c-0.033,0.229-0.119,0.523-0.257,0.883l-2.628,6.948l-1.579-0.095L58.187,4.608l1.657,0.099l1.599,7.539
		c0.051,0.229,0.078,0.526,0.082,0.895l0.077,0.004c0.036-0.281,0.112-0.579,0.228-0.896l2.715-7.262l1.445,0.087l1.599,7.558
		c0.049,0.241,0.08,0.54,0.091,0.896l0.076,0.004c0.028-0.249,0.1-0.541,0.217-0.876l2.448-7.316L71.98,5.432z"/>
	<path display="inline" fill="#FFFFFF" d="M81.401,12.772l-6.847-1.347c-0.188,1.085-0.061,1.975,0.38,2.671s1.146,1.14,2.118,1.331
		c1.092,0.215,2.166,0.052,3.225-0.487l-0.287,1.458c-0.974,0.451-2.162,0.538-3.563,0.264c-1.369-0.27-2.358-0.922-2.968-1.956
		c-0.611-1.034-0.759-2.35-0.444-3.946c0.296-1.509,0.967-2.654,2.008-3.437c1.042-0.781,2.197-1.048,3.466-0.799
		c1.27,0.25,2.171,0.854,2.702,1.811c0.534,0.957,0.658,2.164,0.371,3.623L81.401,12.772z M80.069,11.144
		c0.17-0.898,0.091-1.638-0.237-2.221c-0.329-0.582-0.871-0.948-1.628-1.097c-0.732-0.145-1.406-0.005-2.021,0.419
		c-0.612,0.423-1.063,1.047-1.35,1.869L80.069,11.144z"/>
	<path display="inline" fill="#FFFFFF" d="M84.09,18.291l-1.524-0.427l2.664-9.516l1.523,0.427L84.09,18.291z M86.686,6.151
		c-0.272-0.076-0.479-0.234-0.619-0.475c-0.139-0.238-0.169-0.501-0.091-0.786c0.08-0.285,0.242-0.495,0.487-0.631
		c0.245-0.135,0.504-0.164,0.777-0.088c0.279,0.078,0.488,0.239,0.631,0.482c0.142,0.243,0.174,0.508,0.094,0.793
		c-0.076,0.272-0.239,0.478-0.487,0.615C87.229,6.2,86.965,6.229,86.686,6.151z"/>
	<path display="inline" fill="#FFFFFF" d="M95.105,21.244c-1.257,3.403-3.515,4.504-6.772,3.301
		c-1.148-0.423-2.069-1.01-2.766-1.761l0.548-1.485c0.831,0.965,1.72,1.623,2.666,1.972c2.281,0.843,3.87,0.051,4.766-2.375
		l0.374-1.015l-0.036-0.014c-1.143,0.923-2.424,1.122-3.841,0.599c-1.153-0.426-1.93-1.18-2.329-2.263
		c-0.398-1.083-0.342-2.319,0.171-3.707c0.581-1.575,1.422-2.688,2.523-3.338c1.1-0.649,2.307-0.732,3.623-0.246
		c1.25,0.461,1.99,1.304,2.225,2.528l0.036,0.014l0.476-1.286l1.483,0.549L95.105,21.244z M94.894,17.247l0.505-1.367
		c0.271-0.736,0.255-1.459-0.049-2.167c-0.305-0.71-0.828-1.201-1.569-1.475c-0.918-0.339-1.759-0.271-2.524,0.205
		c-0.765,0.476-1.369,1.313-1.813,2.514c-0.382,1.032-0.437,1.95-0.167,2.752c0.27,0.803,0.815,1.355,1.635,1.658
		c0.834,0.308,1.62,0.262,2.361-0.138C94.012,18.832,94.553,18.17,94.894,17.247z"/>
	<path display="inline" fill="#FFFFFF" d="M104.819,26.747l-1.421-0.696l2.508-5.111c0.905-1.848,0.673-3.109-0.702-3.784
		c-0.692-0.34-1.407-0.358-2.143-0.057c-0.736,0.302-1.309,0.871-1.72,1.709l-2.466,5.024l-1.42-0.696l6.442-13.134l1.421,0.696
		l-2.813,5.736l0.034,0.017c1.231-0.786,2.477-0.871,3.736-0.253c1.998,0.979,2.405,2.674,1.225,5.083L104.819,26.747z"/>
	<path display="inline" fill="#FFFFFF" d="M111.198,30.353c-0.427-0.01-0.904-0.169-1.433-0.477
		c-1.494-0.872-1.754-2.142-0.782-3.81l2.946-5.05l-1.466-0.855l0.681-1.167l1.468,0.855l1.215-2.083l1.624,0.354l-1.473,2.525
		l2.15,1.255l-0.682,1.167l-2.15-1.255l-2.806,4.81c-0.334,0.572-0.475,1.037-0.424,1.396c0.053,0.357,0.304,0.668,0.754,0.931
		c0.345,0.201,0.696,0.28,1.057,0.237L111.198,30.353z"/>
</g>
<g display="none">
	<path display="inline" fill="#FFFFFF" d="M35.22,24.392l-1.797,0.849l-11.15-6.931c-0.281-0.173-0.538-0.371-0.772-0.595
		l-0.052,0.024c0.173,0.246,0.467,0.808,0.882,1.686l4.271,9.039l-1.466,0.692l-5.91-12.512l1.902-0.898l10.901,6.856
		c0.455,0.283,0.755,0.482,0.902,0.599l0.035-0.017c-0.229-0.334-0.547-0.934-0.957-1.8l-4.163-8.812l1.466-0.693L35.22,24.392z"/>
	<path display="inline" fill="#FFFFFF" d="M42.051,22.275c-1.388,0.454-2.64,0.379-3.755-0.228
		c-1.116-0.606-1.911-1.634-2.385-3.083c-0.517-1.577-0.49-2.949,0.083-4.119c0.571-1.168,1.591-1.992,3.059-2.474
		c1.399-0.458,2.633-0.385,3.702,0.22c1.067,0.604,1.852,1.672,2.353,3.199c0.491,1.498,0.46,2.837-0.092,4.016
		C44.463,20.986,43.475,21.809,42.051,22.275z M39.356,13.674c-0.966,0.316-1.623,0.896-1.97,1.736
		c-0.348,0.842-0.332,1.84,0.047,2.996c0.364,1.112,0.936,1.896,1.715,2.353c0.778,0.455,1.645,0.526,2.598,0.215
		c0.972-0.318,1.616-0.878,1.933-1.679c0.317-0.801,0.285-1.782-0.096-2.943c-0.384-1.174-0.941-1.993-1.672-2.459
		C41.179,13.429,40.328,13.355,39.356,13.674z"/>
	<path display="inline" fill="#FFFFFF" d="M52.021,10.862c-0.316-0.146-0.729-0.162-1.237-0.048
		c-0.659,0.148-1.14,0.583-1.442,1.305c-0.302,0.721-0.332,1.617-0.091,2.691l1.108,4.913l-1.543,0.348l-2.173-9.639l1.544-0.349
		l0.447,1.987l0.038-0.009c0.067-0.728,0.283-1.332,0.65-1.813c0.366-0.481,0.829-0.785,1.387-0.911
		c0.401-0.09,0.719-0.116,0.953-0.076L52.021,10.862z"/>
	<path display="inline" fill="#FFFFFF" d="M69.057,17.212l-1.575,0.145l-0.521-5.65c-0.101-1.088-0.342-1.861-0.723-2.316
		c-0.382-0.456-0.969-0.647-1.764-0.574c-0.673,0.063-1.216,0.422-1.63,1.08c-0.414,0.659-0.582,1.418-0.502,2.275l0.517,5.612
		l-1.575,0.145l-0.539-5.843c-0.179-1.934-1.014-2.832-2.506-2.694c-0.692,0.063-1.235,0.406-1.63,1.027s-0.55,1.396-0.464,2.324
		l0.518,5.612l-1.576,0.145l-0.907-9.84l1.576-0.145l0.144,1.557l0.038-0.004c0.588-1.256,1.552-1.945,2.891-2.068
		c0.673-0.063,1.276,0.071,1.811,0.4c0.534,0.328,0.922,0.788,1.164,1.379c0.605-1.425,1.632-2.204,3.08-2.338
		c2.164-0.199,3.37,1.036,3.616,3.707L69.057,17.212z"/>
	<path display="inline" fill="#FFFFFF" d="M78.598,17.866l-1.58-0.094l0.092-1.541l-0.038-0.003
		c-0.758,1.142-1.805,1.673-3.14,1.594c-0.982-0.059-1.736-0.364-2.262-0.917c-0.523-0.553-0.761-1.259-0.71-2.12
		c0.109-1.843,1.258-2.852,3.445-3.024l2.982-0.24c0.099-1.676-0.53-2.554-1.885-2.634c-1.188-0.07-2.283,0.271-3.289,1.023
		l0.097-1.618c1.007-0.56,2.142-0.801,3.406-0.727c2.318,0.138,3.405,1.433,3.26,3.885L78.598,17.866z M77.313,12.782l-2.399,0.188
		c-0.738,0.06-1.302,0.208-1.688,0.446c-0.388,0.238-0.602,0.688-0.641,1.35c-0.028,0.481,0.12,0.885,0.446,1.21
		c0.325,0.326,0.773,0.506,1.345,0.539c0.784,0.047,1.447-0.19,1.99-0.709s0.839-1.199,0.889-2.04L77.313,12.782z"/>
	<path display="inline" fill="#FFFFFF" d="M82.866,18.479L81.3,18.256l2.059-14.482l1.566,0.222L82.866,18.479z"/>
</g>
<g display="none">
	<path display="inline" fill="#FFFFFF" d="M18.125,23.041c-1.808,0.762-3.507,0.777-5.098,0.045s-2.788-2.052-3.594-3.961
		c-0.864-2.051-1.001-3.92-0.408-5.609c0.593-1.688,1.844-2.936,3.753-3.74c1.76-0.743,3.428-0.749,5.004-0.018
		s2.768,2.055,3.576,3.969c0.877,2.08,1.02,3.957,0.428,5.632C21.194,21.033,19.974,22.26,18.125,23.041z M13.242,11.172
		c-1.34,0.564-2.223,1.507-2.652,2.825c-0.428,1.319-0.31,2.764,0.353,4.335c0.663,1.57,1.604,2.662,2.822,3.275
		c1.219,0.613,2.483,0.644,3.793,0.091c1.398-0.59,2.309-1.512,2.729-2.765c0.42-1.253,0.285-2.7-0.408-4.342
		c-0.71-1.684-1.65-2.819-2.82-3.407C15.889,10.596,14.617,10.592,13.242,11.172z"/>
	<path display="inline" fill="#FFFFFF" d="M30.82,8.014l-0.953,10.594l-1.489,0.444l-6.409-8.401l1.665-0.496l4.454,6.164
		c0.33,0.452,0.572,0.86,0.727,1.224l0.037-0.012c-0.08-0.492-0.109-0.95-0.087-1.373L29.22,8.49L30.82,8.014z"/>
	<path display="inline" fill="#FFFFFF" d="M41.894,11.228l-6.848,1.332c0.236,1.075,0.688,1.853,1.358,2.331
		c0.67,0.479,1.491,0.625,2.464,0.435c1.093-0.212,2.026-0.768,2.802-1.665l0.284,1.459c-0.732,0.784-1.799,1.313-3.201,1.586
		c-1.37,0.267-2.533,0.035-3.487-0.693c-0.955-0.729-1.586-1.892-1.898-3.489c-0.293-1.509-0.105-2.822,0.566-3.939
		c0.671-1.116,1.64-1.798,2.91-2.046c1.27-0.246,2.331-0.027,3.186,0.659c0.854,0.686,1.423,1.758,1.707,3.217L41.894,11.228z
		 M40.046,10.221c-0.181-0.896-0.533-1.552-1.056-1.967c-0.523-0.416-1.164-0.551-1.922-0.404C36.336,7.993,35.765,8.376,35.355,9
		c-0.409,0.624-0.592,1.37-0.547,2.239L40.046,10.221z"/>
	<path display="inline" fill="#FFFFFF" d="M49.134,6.731c-0.296-0.183-0.705-0.248-1.223-0.195
		c-0.671,0.069-1.201,0.443-1.587,1.123c-0.387,0.68-0.523,1.567-0.412,2.661l0.513,5.011l-1.574,0.161l-1.006-9.83l1.575-0.16
		l0.207,2.025l0.038-0.004c0.153-0.715,0.441-1.288,0.862-1.723c0.421-0.435,0.917-0.681,1.486-0.739
		c0.409-0.042,0.728-0.029,0.955,0.038L49.134,6.731z"/>
	<path display="inline" fill="#FFFFFF" d="M63.909,5.072l-3.103,9.838l-1.64-0.022L57.23,7.786c-0.073-0.271-0.12-0.577-0.141-0.919
		l-0.038-0.001c-0.023,0.231-0.095,0.529-0.216,0.896l-2.31,7.06L52.943,14.8l-2.852-9.923l1.66,0.023l1.94,7.459
		c0.062,0.226,0.102,0.521,0.123,0.889l0.077,0.001c0.023-0.282,0.086-0.584,0.187-0.904l2.382-7.378l1.447,0.021l1.94,7.478
		c0.061,0.239,0.104,0.536,0.132,0.89l0.077,0.001c0.016-0.251,0.076-0.545,0.177-0.885l2.112-7.421L63.909,5.072z"/>
	<path display="inline" fill="#FFFFFF" d="M73.646,11.999l-6.896-1.053c-0.141,1.091,0.023,1.976,0.493,2.652
		s1.194,1.09,2.173,1.239c1.101,0.168,2.167-0.04,3.2-0.624l-0.225,1.469c-0.953,0.492-2.137,0.63-3.549,0.415
		c-1.38-0.21-2.396-0.819-3.05-1.827c-0.653-1.007-0.855-2.315-0.611-3.925c0.233-1.52,0.853-2.692,1.86-3.518
		c1.008-0.826,2.15-1.141,3.429-0.946c1.278,0.195,2.204,0.76,2.777,1.693s0.748,2.134,0.523,3.604L73.646,11.999z M72.246,10.429
		c0.131-0.904,0.021-1.641-0.332-2.208c-0.353-0.568-0.91-0.91-1.674-1.026c-0.737-0.112-1.404,0.056-2,0.505
		s-1.02,1.091-1.27,1.924L72.246,10.429z"/>
	<path display="inline" fill="#FFFFFF" d="M76.549,17.415l-1.538-0.368l2.299-9.61l1.54,0.368L76.549,17.415z M78.682,5.186
		c-0.275-0.066-0.486-0.216-0.636-0.45s-0.189-0.495-0.12-0.782c0.068-0.288,0.223-0.504,0.463-0.648
		c0.239-0.145,0.496-0.185,0.772-0.118c0.281,0.067,0.497,0.221,0.648,0.458c0.152,0.238,0.192,0.501,0.124,0.789
		c-0.066,0.275-0.221,0.485-0.463,0.633C79.227,5.213,78.964,5.253,78.682,5.186z"/>
	<path display="inline" fill="#FFFFFF" d="M87.64,19.997c-1.149,3.44-3.372,4.61-6.667,3.51c-1.158-0.388-2.098-0.945-2.817-1.675
		l0.501-1.501c0.859,0.938,1.769,1.568,2.727,1.888c2.307,0.771,3.869-0.069,4.689-2.522l0.343-1.024l-0.037-0.013
		c-1.113,0.957-2.387,1.196-3.82,0.718c-1.166-0.391-1.966-1.12-2.397-2.189c-0.432-1.071-0.414-2.308,0.055-3.712
		c0.533-1.592,1.338-2.729,2.418-3.414c1.079-0.683,2.285-0.803,3.614-0.358c1.264,0.422,2.031,1.242,2.302,2.458l0.037,0.013
		l0.435-1.3l1.501,0.501L87.64,19.997z M87.305,16.008l0.461-1.382c0.249-0.744,0.211-1.466-0.115-2.165
		c-0.326-0.698-0.863-1.174-1.615-1.425c-0.927-0.31-1.766-0.215-2.516,0.284c-0.749,0.499-1.328,1.355-1.733,2.569
		c-0.349,1.043-0.376,1.962-0.082,2.755c0.294,0.794,0.856,1.329,1.687,1.606c0.842,0.282,1.627,0.212,2.354-0.211
		C86.474,17.619,86.993,16.941,87.305,16.008z"/>
	<path display="inline" fill="#FFFFFF" d="M97.441,25.285l-1.435-0.67l2.408-5.158c0.87-1.865,0.611-3.122-0.775-3.77
		c-0.7-0.326-1.415-0.331-2.145-0.016c-0.729,0.316-1.291,0.897-1.686,1.742l-2.367,5.072l-1.435-0.67l6.187-13.256l1.435,0.669
		l-2.701,5.789l0.034,0.016c1.217-0.81,2.459-0.918,3.73-0.325c2.017,0.941,2.459,2.628,1.323,5.059L97.441,25.285z"/>
	<path display="inline" fill="#FFFFFF" d="M103.809,28.801c-0.426-0.006-0.904-0.16-1.436-0.463
		c-1.503-0.857-1.776-2.124-0.821-3.801l2.897-5.079l-1.476-0.842l0.669-1.173l1.476,0.841l1.194-2.096l1.629,0.34l-1.448,2.54
		l2.162,1.232l-0.669,1.174l-2.162-1.232l-2.759,4.836c-0.328,0.575-0.465,1.042-0.408,1.399c0.055,0.357,0.309,0.665,0.761,0.924
		c0.347,0.197,0.7,0.273,1.061,0.227L103.809,28.801z"/>
</g>
<g>
	<path fill="#FFFFFF" d="M43.72,20.679c-1.958,0.114-3.565-0.439-4.819-1.661c-1.254-1.223-1.941-2.867-2.063-4.935
		c-0.129-2.223,0.367-4.03,1.491-5.424c1.124-1.393,2.719-2.149,4.787-2.271c1.907-0.111,3.481,0.441,4.722,1.657
		c1.241,1.217,1.921,2.861,2.042,4.936c0.132,2.255-0.36,4.071-1.479,5.452C47.284,19.813,45.723,20.562,43.72,20.679z
		 M43.086,7.859c-1.451,0.085-2.599,0.678-3.443,1.777c-0.844,1.1-1.217,2.501-1.117,4.202s0.621,3.046,1.564,4.031
		c0.944,0.985,2.125,1.437,3.545,1.354c1.516-0.088,2.681-0.652,3.496-1.693c0.816-1.039,1.172-2.449,1.068-4.228
		c-0.107-1.824-0.613-3.209-1.519-4.155C45.774,8.202,44.576,7.772,43.086,7.859z"/>
	<path fill="#FFFFFF" d="M54.121,18.864l-0.039-0.002l-0.088,1.426l-1.579-0.098l0.902-14.602l1.58,0.098l-0.399,6.473l0.038,0.003
		c0.858-1.262,2.034-1.847,3.531-1.755c1.265,0.078,2.228,0.581,2.889,1.509c0.662,0.927,0.946,2.132,0.854,3.615
		c-0.101,1.649-0.584,2.946-1.448,3.889s-1.993,1.37-3.386,1.284C55.672,20.624,54.721,20.011,54.121,18.864z M54.328,14.886
		l-0.085,1.377c-0.05,0.814,0.172,1.523,0.667,2.124c0.494,0.601,1.149,0.927,1.964,0.978c0.957,0.059,1.729-0.261,2.317-0.959
		c0.588-0.699,0.922-1.7,1.002-3.003c0.068-1.099-0.133-1.974-0.601-2.628c-0.469-0.654-1.137-1.009-2.004-1.063
		c-0.918-0.057-1.676,0.218-2.274,0.822C54.716,13.138,54.388,13.922,54.328,14.886z"/>
	<path fill="#FFFFFF" d="M72.224,17.939l-6.874-1.188c-0.163,1.088-0.016,1.975,0.44,2.661c0.456,0.686,1.172,1.113,2.147,1.282
		c1.097,0.188,2.168,0.002,3.212-0.562l-0.253,1.464c-0.964,0.474-2.148,0.589-3.556,0.346c-1.376-0.238-2.381-0.867-3.013-1.888
		c-0.635-1.02-0.813-2.332-0.535-3.936c0.262-1.515,0.904-2.676,1.929-3.48c1.023-0.807,2.173-1.099,3.446-0.878
		c1.274,0.22,2.189,0.803,2.744,1.746c0.555,0.944,0.705,2.149,0.453,3.614L72.224,17.939z M70.854,16.342
		c0.148-0.901,0.053-1.64-0.288-2.214c-0.342-0.574-0.893-0.928-1.653-1.06c-0.735-0.127-1.405,0.028-2.01,0.466
		s-1.04,1.07-1.307,1.898L70.854,16.342z"/>
	<path fill="#FFFFFF" d="M72.957,22.447l0.454-1.637c0.661,0.845,1.489,1.405,2.488,1.682c1.339,0.371,2.132,0.11,2.38-0.782
		c0.07-0.254,0.072-0.485,0.007-0.693c-0.065-0.209-0.177-0.408-0.335-0.6c-0.157-0.189-0.354-0.376-0.586-0.557
		c-0.233-0.182-0.486-0.374-0.757-0.576c-0.375-0.284-0.698-0.556-0.97-0.815c-0.272-0.259-0.486-0.524-0.641-0.798
		s-0.248-0.561-0.28-0.864c-0.034-0.303,0.001-0.637,0.103-1.002c0.123-0.447,0.336-0.813,0.635-1.102
		c0.301-0.287,0.653-0.5,1.059-0.638s0.843-0.204,1.313-0.201s0.938,0.069,1.402,0.198c0.824,0.229,1.522,0.575,2.094,1.042
		l-0.428,1.543c-0.573-0.652-1.315-1.105-2.227-1.358c-0.285-0.079-0.552-0.118-0.799-0.116c-0.248,0.002-0.47,0.038-0.666,0.11
		c-0.197,0.072-0.363,0.178-0.499,0.317s-0.231,0.309-0.286,0.506c-0.068,0.248-0.082,0.469-0.038,0.66
		c0.044,0.193,0.134,0.379,0.271,0.557c0.138,0.179,0.315,0.354,0.534,0.528c0.219,0.175,0.469,0.368,0.751,0.579
		c0.377,0.279,0.709,0.549,0.997,0.813c0.287,0.264,0.519,0.534,0.695,0.813c0.176,0.279,0.289,0.576,0.339,0.89
		c0.05,0.314,0.021,0.664-0.085,1.048c-0.131,0.472-0.349,0.852-0.652,1.142c-0.305,0.289-0.661,0.501-1.072,0.634
		s-0.857,0.192-1.342,0.179c-0.483-0.014-0.973-0.09-1.469-0.228C74.368,23.449,73.571,23.024,72.957,22.447z"/>
	<path fill="#FFFFFF" d="M90.201,23.855l-6.496-2.547c-0.377,1.033-0.412,1.932-0.104,2.695s0.924,1.326,1.848,1.688
		c1.035,0.406,2.121,0.438,3.258,0.096l-0.543,1.384c-1.039,0.27-2.223,0.144-3.553-0.378c-1.299-0.51-2.156-1.328-2.572-2.454
		c-0.414-1.127-0.324-2.447,0.27-3.963c0.562-1.431,1.424-2.438,2.59-3.022c1.165-0.583,2.35-0.639,3.553-0.166
		c1.204,0.473,1.982,1.227,2.336,2.264s0.259,2.247-0.283,3.631L90.201,23.855z M89.182,22.015c0.327-0.853,0.381-1.596,0.163-2.227
		c-0.219-0.632-0.688-1.088-1.406-1.371c-0.695-0.271-1.383-0.254-2.063,0.053c-0.681,0.307-1.234,0.839-1.663,1.597L89.182,22.015z
		"/>
</g>
</svg>
