<?xml version="1.0" encoding="utf-8"?>
<!-- Generator: Adobe Illustrator 15.1.0, SVG Export Plug-In . SVG Version: 6.00 Build 0)  -->
<!DOCTYPE svg PUBLIC "-//W3C//DTD SVG 1.1//EN" "http://www.w3.org/Graphics/SVG/1.1/DTD/svg11.dtd">
<svg version="1.1" id="Layer_1" xmlns="http://www.w3.org/2000/svg" xmlns:xlink="http://www.w3.org/1999/xlink" x="0px" y="0px"
	 width="120px" height="35px" viewBox="0 0 120 35" enable-background="new 0 0 120 35" xml:space="preserve">
<rect display="none" fill="#101010" width="120" height="34.537"/>
<g>
	<path fill="#FFFFFF" d="M16.339,19.264c1.841,3.422,1.219,5.963-1.868,7.625c-2.958,1.592-5.322,0.741-7.093-2.55l-4.011-7.451
		l1.427-0.769l3.96,7.357c1.344,2.498,3.07,3.181,5.178,2.046c2.034-1.094,2.4-2.848,1.102-5.261l-4.029-7.485l1.428-0.769
		L16.339,19.264z"/>
	<path fill="#FFFFFF" d="M29.226,19.956l-1.468,0.59l-2.105-5.228c-0.783-1.945-1.885-2.632-3.305-2.061
		c-0.734,0.296-1.23,0.816-1.488,1.562c-0.258,0.746-0.218,1.539,0.121,2.381l2.104,5.227l-1.468,0.592l-3.69-9.166l1.468-0.592
		l0.612,1.522l0.036-0.015c0.227-1.437,0.996-2.419,2.309-2.947c1.002-0.404,1.899-0.389,2.691,0.045
		c0.792,0.434,1.434,1.263,1.927,2.485L29.226,19.956z"/>
	<path fill="#FFFFFF" d="M39.829,16.859l-1.525,0.421l-0.448-1.617l-0.037,0.01c-0.367,1.423-1.289,2.339-2.764,2.747
		c-1.197,0.331-2.271,0.17-3.223-0.484c-0.952-0.654-1.631-1.717-2.038-3.186c-0.436-1.575-0.388-2.946,0.143-4.115
		c0.531-1.168,1.457-1.935,2.778-2.3c1.308-0.362,2.402-0.11,3.282,0.754l0.037-0.011l-1.632-5.896l1.525-0.421L39.829,16.859z
		 M37.112,12.975l-0.389-1.404c-0.213-0.769-0.647-1.349-1.302-1.742c-0.657-0.392-1.375-0.479-2.156-0.264
		c-0.931,0.257-1.567,0.801-1.912,1.63c-0.345,0.829-0.35,1.846-0.018,3.049c0.304,1.097,0.799,1.893,1.487,2.387
		c0.688,0.494,1.462,0.622,2.324,0.383c0.849-0.234,1.454-0.732,1.814-1.493C37.32,14.759,37.371,13.911,37.112,12.975z"/>
	<path fill="#FFFFFF" d="M49.745,10.593l-6.895,1.065c0.194,1.083,0.616,1.877,1.267,2.382c0.651,0.506,1.465,0.682,2.445,0.53
		c1.1-0.17,2.054-0.688,2.864-1.556l0.228,1.469c-0.762,0.756-1.849,1.242-3.26,1.461c-1.38,0.213-2.532-0.063-3.458-0.828
		c-0.926-0.765-1.513-1.951-1.761-3.561c-0.235-1.519,0.004-2.823,0.718-3.914c0.713-1.089,1.709-1.733,2.987-1.931
		s2.33,0.063,3.157,0.781c0.827,0.719,1.354,1.812,1.581,3.28L49.745,10.593z M47.938,9.515c-0.146-0.901-0.472-1.57-0.979-2.006
		c-0.507-0.437-1.142-0.596-1.905-0.478c-0.738,0.114-1.323,0.475-1.756,1.082c-0.433,0.607-0.645,1.347-0.633,2.217L47.938,9.515z"
		/>
	<path fill="#FFFFFF" d="M57.152,6.418c-0.288-0.195-0.693-0.277-1.213-0.247c-0.674,0.04-1.219,0.391-1.634,1.053
		c-0.416,0.662-0.591,1.542-0.527,2.641l0.295,5.028l-1.58,0.093l-0.579-9.864l1.58-0.093l0.119,2.032l0.039-0.002
		c0.184-0.707,0.496-1.268,0.935-1.683c0.44-0.416,0.945-0.642,1.518-0.675c0.411-0.023,0.728,0.003,0.952,0.079L57.152,6.418z"/>
	<path fill="#FFFFFF" d="M71.98,5.432l-3.546,9.687l-1.638-0.098l-1.611-7.182c-0.061-0.274-0.094-0.582-0.1-0.924l-0.038-0.002
		c-0.033,0.229-0.119,0.523-0.257,0.883l-2.628,6.948l-1.579-0.095L58.187,4.608l1.657,0.099l1.599,7.539
		c0.051,0.229,0.078,0.526,0.082,0.895l0.077,0.004c0.036-0.281,0.112-0.579,0.228-0.896l2.715-7.262l1.445,0.087l1.599,7.558
		c0.049,0.241,0.08,0.54,0.091,0.896l0.076,0.004c0.028-0.249,0.1-0.541,0.217-0.876l2.448-7.316L71.98,5.432z"/>
	<path fill="#FFFFFF" d="M81.401,12.772l-6.847-1.347c-0.188,1.085-0.061,1.975,0.38,2.671s1.146,1.14,2.118,1.331
		c1.092,0.215,2.166,0.052,3.225-0.487l-0.287,1.458c-0.974,0.451-2.162,0.538-3.563,0.264c-1.369-0.27-2.358-0.922-2.968-1.956
		c-0.611-1.034-0.759-2.35-0.444-3.946c0.296-1.509,0.967-2.654,2.008-3.437c1.042-0.781,2.197-1.048,3.466-0.799
		c1.27,0.25,2.171,0.854,2.702,1.811c0.534,0.957,0.658,2.164,0.371,3.623L81.401,12.772z M80.069,11.144
		c0.17-0.898,0.091-1.638-0.237-2.221c-0.329-0.582-0.871-0.948-1.628-1.097c-0.732-0.145-1.406-0.005-2.021,0.419
		c-0.612,0.423-1.063,1.047-1.35,1.869L80.069,11.144z"/>
	<path fill="#FFFFFF" d="M84.09,18.291l-1.524-0.427l2.664-9.516l1.523,0.427L84.09,18.291z M86.686,6.151
		c-0.272-0.076-0.479-0.234-0.619-0.475c-0.139-0.238-0.169-0.501-0.091-0.786c0.08-0.285,0.242-0.495,0.487-0.631
		c0.245-0.135,0.504-0.164,0.777-0.088c0.279,0.078,0.488,0.239,0.631,0.482c0.142,0.243,0.174,0.508,0.094,0.793
		c-0.076,0.272-0.239,0.478-0.487,0.615C87.229,6.2,86.965,6.229,86.686,6.151z"/>
	<path fill="#FFFFFF" d="M95.105,21.244c-1.257,3.403-3.515,4.504-6.772,3.301c-1.148-0.423-2.069-1.01-2.766-1.761l0.548-1.485
		c0.831,0.965,1.72,1.623,2.666,1.972c2.281,0.843,3.87,0.051,4.766-2.375l0.374-1.015l-0.036-0.014
		c-1.143,0.923-2.424,1.122-3.841,0.599c-1.153-0.426-1.93-1.18-2.329-2.263c-0.398-1.083-0.342-2.319,0.171-3.707
		c0.581-1.575,1.422-2.688,2.523-3.338c1.1-0.649,2.307-0.732,3.623-0.246c1.25,0.461,1.99,1.304,2.225,2.528l0.036,0.014
		l0.476-1.286l1.483,0.549L95.105,21.244z M94.894,17.247l0.505-1.367c0.271-0.736,0.255-1.459-0.049-2.167
		c-0.305-0.71-0.828-1.201-1.569-1.475c-0.918-0.339-1.759-0.271-2.524,0.205c-0.765,0.476-1.369,1.313-1.813,2.514
		c-0.382,1.032-0.437,1.95-0.167,2.752c0.27,0.803,0.815,1.355,1.635,1.658c0.834,0.308,1.62,0.262,2.361-0.138
		C94.012,18.832,94.553,18.17,94.894,17.247z"/>
	<path fill="#FFFFFF" d="M104.819,26.747l-1.421-0.696l2.508-5.111c0.905-1.848,0.673-3.109-0.702-3.784
		c-0.692-0.34-1.407-0.358-2.143-0.057c-0.736,0.302-1.309,0.871-1.72,1.709l-2.466,5.024l-1.42-0.696l6.442-13.134l1.421,0.696
		l-2.813,5.736l0.034,0.017c1.231-0.786,2.477-0.871,3.736-0.253c1.998,0.979,2.405,2.674,1.225,5.083L104.819,26.747z"/>
	<path fill="#FFFFFF" d="M111.198,30.353c-0.427-0.01-0.904-0.169-1.433-0.477c-1.494-0.872-1.754-2.142-0.782-3.81l2.946-5.05
		l-1.466-0.855l0.681-1.167l1.468,0.855l1.215-2.083l1.624,0.354l-1.473,2.525l2.15,1.255l-0.682,1.167l-2.15-1.255l-2.806,4.81
		c-0.334,0.572-0.475,1.037-0.424,1.396c0.053,0.357,0.304,0.668,0.754,0.931c0.345,0.201,0.696,0.28,1.057,0.237L111.198,30.353z"
		/>
</g>
<path fill="none" d="M-14.771,14.729c0,0,64.521-86.321,149.542-20.344"/>
<text transform="matrix(0.8412 -0.5407 0.5407 0.8412 14.748 -12.4019)"><tspan x="0" y="0" fill="#333031" font-family="'YuGothicUI-Regular'" font-size="19.7622"> </tspan><tspan x="5.264" y="-0.003" fill="#333031" font-family="'YuGothicUI-Regular'" font-size="19.7622" rotate="2.484"> </tspan><tspan x="10.397" y="-0.002" fill="#333031" font-family="'YuGothicUI-Regular'" font-size="19.7622" rotate="7.441">N</tspan><tspan x="24.659" y="1.922" fill="#333031" font-family="'YuGothicUI-Regular'" font-size="19.7622" rotate="14.597">o</tspan><tspan x="35.525" y="4.846" fill="#333031" font-family="'YuGothicUI-Regular'" font-size="19.7622" rotate="20.023">r</tspan><tspan x="41.733" y="6.723" fill="#333031" font-family="'YuGothicUI-Regular'" font-size="19.7622" rotate="27.461">m</tspan><tspan x="56.268" y="14.528" fill="#333031" font-family="'YuGothicUI-Regular'" font-size="19.7622" rotate="36.111">a</tspan><tspan x="64.126" y="20.382" fill="#333031" font-family="'YuGothicUI-Regular'" font-size="19.7622" rotate="40.817">l</tspan></text>
<path fill="none" d="M-128.771,89.436c0,0,64.521-86.321,149.542-20.344"/>
<text transform="matrix(0.8412 -0.5407 0.5407 0.8412 -99.252 62.3047)"><tspan x="0" y="0" fill="#333031" font-family="'YuGothicUI-Regular'" font-size="19.7622"> </tspan><tspan x="5.15" y="-0.213" fill="#333031" font-family="'YuGothicUI-Regular'" font-size="19.7622" rotate="4.763">O</tspan><tspan x="19.625" y="1.11" fill="#333031" font-family="'YuGothicUI-Regular'" font-size="19.7622" rotate="11.056">v</tspan><tspan x="28.589" y="2.816" fill="#333031" font-family="'YuGothicUI-Regular'" font-size="19.7622" rotate="16.633">e</tspan><tspan x="38.188" y="5.749" fill="#333031" font-family="'YuGothicUI-Regular'" font-size="19.7622" rotate="21.802">r</tspan><tspan x="44.333" y="7.949" fill="#333031" font-family="'YuGothicUI-Regular'" font-size="19.7622" rotate="28.453">w</tspan><tspan x="56.422" y="14.618" fill="#333031" font-family="'YuGothicUI-Regular'" font-size="19.7622" rotate="36.321">e</tspan><tspan x="64.464" y="20.66" fill="#333031" font-family="'YuGothicUI-Regular'" font-size="19.7622" rotate="41.1">i</tspan><tspan x="67.964" y="23.501" fill="#333031" font-family="'YuGothicUI-Regular'" font-size="19.7622" rotate="46.122">g</tspan><tspan x="75.772" y="31.624" fill="#333031" font-family="'YuGothicUI-Regular'" font-size="19.7622" rotate="52.66">h</tspan><tspan x="82.309" y="40.332" fill="#333031" font-family="'YuGothicUI-Regular'" font-size="19.7622" rotate="57.335">t</tspan></text>
<path fill="none" d="M-8.271,116.686c0,0,64.521-86.32,149.542-20.344"/>
<text transform="matrix(0.8412 -0.5407 0.5407 0.8412 21.248 89.5547)"><tspan x="0" y="0" fill="#333031" font-family="'YuGothicUI-Regular'" font-size="19.7622"> </tspan><tspan x="5.15" y="-0.213" fill="#333031" font-family="'YuGothicUI-Regular'" font-size="19.7622" rotate="4.763">O</tspan><tspan x="19.605" y="1.051" fill="#333031" font-family="'YuGothicUI-Regular'" font-size="19.7622" rotate="11.645">b</tspan><tspan x="30.623" y="3.328" fill="#333031" font-family="'YuGothicUI-Regular'" font-size="19.7622" rotate="17.912">e</tspan><tspan x="40.13" y="6.431" fill="#333031" font-family="'YuGothicUI-Regular'" font-size="19.7622" rotate="23.609">s</tspan><tspan x="47.522" y="9.585" fill="#333031" font-family="'YuGothicUI-Regular'" font-size="19.7622" rotate="29.521">e</tspan></text>
</svg>
