<?xml version="1.0" encoding="utf-8"?>
<!-- Generator: Adobe Illustrator 15.1.0, SVG Export Plug-In . SVG Version: 6.00 Build 0)  -->
<!DOCTYPE svg PUBLIC "-//W3C//DTD SVG 1.1//EN" "http://www.w3.org/Graphics/SVG/1.1/DTD/svg11.dtd">
<svg version="1.1" id="Layer_1" xmlns="http://www.w3.org/2000/svg" xmlns:xlink="http://www.w3.org/1999/xlink" x="0px" y="0px"
	 width="512px" height="512px" viewBox="0 0 512 512" enable-background="new 0 0 512 512" xml:space="preserve">
<g id="Capa_1" display="none">
	<g display="inline">
		<path fill="#D5D6DB" d="M402.061,300.971c-5.451-16.177-17.896-29.054-33.36-36.277l-65.815-30.749L256,252.301l-46.885-18.356
			l-65.814,30.749c-15.465,7.225-27.909,20.102-33.363,36.277c-1.92,5.698-3.103,11.955-2.836,18.504
			c0.639,15.762,3.151,57.03,5.052,87.414c1.248,19.946,17.791,35.471,37.778,35.471H256h106.067
			c19.986,0,36.528-15.521,37.777-35.471c1.9-30.383,4.412-71.652,5.053-87.414C405.164,312.926,403.982,306.669,402.061,300.971
			L402.061,300.971z"/>
		<path fill="#2F4859" d="M347.618,346.848l-7.241-0.467c1.408-21.876,2.104-47.559-3.4-72.197
			c-4.705-21.078-16.841-36.037-36.064-44.46c-36.344-15.936-84.956-3.688-95.428,2.378c-19.835,11.483-27.926,27.738-27.926,56.108
			h-7.255c0-30.928,9.433-49.586,31.544-62.385c12.848-7.439,63.653-19.543,101.98-2.747c21.454,9.405,34.99,26.068,40.23,49.524
			C349.76,298.132,349.057,324.462,347.618,346.848z"/>
		<path fill="#F7BE56" d="M216.438,171.71h79.125v100.069h-79.125V171.71L216.438,171.71z"/>
		<path fill="#2D93BA" d="M302.884,233.945L256,252.301l-46.885-18.356l-11.183,5.224v118.008l58.066,85.182l45.618-67.255
			l11.188-136.521L302.884,233.945z"/>
		<path fill="#E56353" d="M264.443,252.344h-16.884l-8.442,14.623l8.442,14.621h16.884l8.44-14.621L264.443,252.344z"/>
		<path fill="#27A2DB" d="M295.563,216.646L256.001,252.3l25.492,27.425l21.392-45.783L295.563,216.646z"/>
		<path fill="#27A2DB" d="M216.438,216.646l39.563,35.654l-25.492,27.425l-21.393-45.783L216.438,216.646z"/>
		<path fill="#E56353" d="M278.994,411.463l-22.993,30.896l-22.993-30.896l14.511-131.018h16.963L278.994,411.463z"/>
		<path fill="#EBF0F3" d="M300.775,228.961c0,0,12.018,94.771-44.774,213.396c0,0,46.964-32.843,73.176-118.162l-12.015-22.049
			l18.51-12.463l-17.292-49.125L300.775,228.961z"/>
		<path fill="#EBF0F3" d="M211.585,228.112c0,0-12.377,95.619,44.416,214.246c0,0-46.963-32.843-73.175-118.162l12.014-22.049
			l-18.51-12.463l17.293-49.125L211.585,228.112z"/>
		<g>
			<path fill="#FCD462" d="M329.731,125.738c-4.488-1.017-9.941,6.167-12.18,16.045c-2.237,9.878-0.413,18.71,4.076,19.728
				c4.488,1.018,9.942-6.166,12.181-16.045C336.046,135.587,334.222,126.755,329.731,125.738z"/>
			<path fill="#FCD462" d="M181.36,125.738c4.489-1.017,9.942,6.167,12.18,16.045c2.237,9.878,0.413,18.71-4.077,19.728
				c-4.488,1.018-9.941-6.166-12.18-16.045C175.047,135.587,176.872,126.755,181.36,125.738z"/>
			<ellipse fill="#FCD462" cx="256.226" cy="131.464" rx="72.911" ry="85.255"/>
		</g>
		<g>
			<path fill="#474C5B" d="M293.563,26.965c0,0-22.149-8.165-38.173-5.465c-16.023-2.7-38.173,5.465-38.173,5.465
				c-35.642,20.75-38.586,54.671-35.345,85.045c2.643,24.768,7.634,44.375,9.387,50.767c0.33,1.204,1.24,2.138,2.34,2.212
				c1.688,0.112,2.973-1.618,2.677-3.492c-2.945-18.621,1.246-27.613,4.238-31.467c1.357-1.747,1.478-4.333,0.333-6.27l-3.954-6.688
				c-6.186-10.462-5.302-42.522,11.487-36.785c16.79,5.738,47.01,6.412,47.01,6.412s30.22-0.674,47.011-6.412
				c16.789-5.737,17.671,26.324,11.485,36.785l-3.953,6.687c-1.137,1.924-1.042,4.512,0.31,6.244
				c2.985,3.828,7.188,12.778,4.285,31.342c-0.249,1.603,0.572,3.259,1.965,3.587c1.332,0.313,2.596-0.579,2.984-1.998
				c1.714-6.223,6.768-25.95,9.431-50.923C332.146,81.637,329.201,47.715,293.563,26.965L293.563,26.965z"/>
			<path fill="#474C5B" d="M177.118,300.843c21.354,4.791,33.146,22.687,38.158,57.785c1.6,11.197-0.394,19.794-5.927,25.556
				c-6.438,6.7-15.89,7.422-19.653,7.422c-0.319,0-0.606-0.004-0.86-0.013l0.529-5.157c0.098,0.002,0.202,0.002,0.311,0.002
				c3.121,0,10.925-0.571,15.984-5.873c4.347-4.554,5.862-11.689,4.503-21.207c-4.714-33.002-14.929-49.092-34.043-53.444
				L177.118,300.843z"/>
			<path fill="#474C5B" d="M171.738,305.912c-19.115,4.354-29.329,20.441-34.044,53.443c-1.357,9.52,0.156,16.654,4.502,21.209
				c5.058,5.301,12.863,5.873,15.984,5.873c0.112,0,0.22-0.002,0.322-0.002l0.519,5.16c-0.257,0.01-0.548,0.012-0.872,0.012
				c-3.76,0-13.203-0.724-19.644-7.426c-5.532-5.759-7.526-14.356-5.926-25.557c5.013-35.098,16.804-52.992,38.159-57.783
				L171.738,305.912z"/>
		</g>
		<path fill="#44C4A1" d="M132.291,352.273h7.879c5.134-27.955,15.145-41.672,32.767-45.285h1.983
			c17.622,3.613,27.634,17.33,32.767,45.285h7.878c-5.313-30.08-16.359-46.387-35.168-51.901V281.45h-12.94v18.922
			C148.65,305.889,137.604,322.193,132.291,352.273z"/>
		<circle fill="#2F4859" cx="189.325" cy="389.395" r="5.459"/>
		<circle fill="#2F4859" cx="159.745" cy="389.395" r="5.459"/>
		<circle fill="#44C4A1" cx="344.081" cy="350.344" r="19.017"/>
		<circle fill="#4D5C7D" cx="344.081" cy="350.343" r="12.191"/>
		<circle fill="#2F4859" cx="344.081" cy="350.343" r="5.999"/>
	</g>
	<text transform="matrix(1 0 0 1 184.5649 494.0225)" display="inline" font-family="'MyriadPro-Regular'" font-size="37.8966">Nutrition</text>
</g>
<g id="Layer_2">
	<path fill="#5A4146" d="M367.387,226.153v5.583c0,6.841,1.105,13.637,3.269,20.127l12.645,37.939h23.869v-87.519H391.26
		C378.075,202.285,367.387,212.97,367.387,226.153z"/>
	<path fill="#694B4B" d="M476.325,242.681l-13.461,47.122l-63.652-55.692c-8.789,0-15.913-7.125-15.913-15.913l0,0
		c0-13.182,10.689-23.868,23.869-23.868h55.692c8.79,0,15.913,7.124,15.913,15.912v14.955
		C478.776,231.109,477.95,236.994,476.325,242.681z"/>
	<rect x="399.207" y="313.675" fill="#E6AF78" width="47.738" height="35.216"/>
	<path fill="#D29B6E" d="M399.212,328.287c7.381,2.998,15.426,4.684,23.869,4.684c8.444,0,16.489-1.686,23.87-4.684V313.67h-47.739
		V328.287L399.212,328.287z"/>
	<path fill="#D5DCED" d="M485.331,343.938l-38.382-10.963l-23.868,15.838l-23.869-15.842l-38.383,10.967
		c-10.244,2.93-17.311,12.297-17.311,22.953v58.17c0,4.393,3.563,7.954,7.957,7.954h143.21c4.396,0,7.957-3.563,7.957-7.954v-58.17
		C502.644,356.232,495.578,346.866,485.331,343.938z"/>
	<polygon fill="#AFB9D2" points="431.038,433.015 415.125,433.015 419.102,348.884 427.062,348.884 	"/>
	<path fill="#F0C087" d="M423.081,321.629L423.081,321.629c-26.362,0-47.735-21.375-47.735-47.738v-9.32
		c0-4.221,1.675-8.269,4.659-11.251l14.428-14.428c3.057-3.056,7.231-4.812,11.552-4.676c25.433,0.803,47.943,6.251,60.25,18.271
		c3.014,2.943,4.584,7.056,4.584,11.269v10.138C470.817,300.257,449.444,321.629,423.081,321.629z"/>
	<path fill="#E6AF78" d="M399.212,266.542c0-9.179,7.707-16.473,16.866-15.888c16.063,1.025,39.896,3.709,54.521,10.745
		c-0.478-3.359-1.922-6.528-4.364-8.916c-12.307-12.019-34.817-17.468-60.25-18.269l0,0l0,0c-4.319-0.137-8.497,1.62-11.552,4.675
		l-14.428,14.426c-2.984,2.984-4.659,7.035-4.659,11.251v9.324c0,21.769,14.586,40.098,34.511,45.838
		c-6.633-8.182-10.645-18.567-10.645-29.93V266.542L399.212,266.542z"/>
	<path fill="#C7CFE2" d="M470.817,390.598c0-6.332,2.517-12.402,6.99-16.879l20.48-20.479c2.738,3.912,4.354,8.623,4.354,13.648
		v58.171c0,4.396-3.563,7.954-7.957,7.954h-23.868L470.817,390.598L470.817,390.598z"/>
	<path fill="#959CB5" d="M427.062,364.797h-7.96c-2.192,0-3.977-1.781-3.977-3.977v-11.938h15.913v11.938
		C431.038,363.016,429.255,364.797,427.062,364.797z"/>
	<g>
		<path fill="#C7CFE2" d="M423.081,348.813l-13.484,10.301c-2.324,1.773-5.682,1.064-7.087-1.502l-12.098-22.092l4.872-7.428
			c1.081-1.646,3.383-1.929,4.824-0.588L423.081,348.813z"/>
		<path fill="#C7CFE2" d="M423.081,348.813l13.485,10.301c2.323,1.777,5.68,1.064,7.085-1.498l12.1-22.096l-4.872-7.424
			c-1.081-1.648-3.383-1.931-4.828-0.59L423.081,348.813z"/>
	</g>
	<path fill="#5A4146" d="M151.776,318.305c-6.799-18.013-12.19-48.979-13.356-65.104c-2.216-30.682-25.337-55.694-56.594-55.694
		c-31.256,0-54.379,25.013-56.595,55.694c-1.165,16.121-6.557,47.092-13.355,65.104c-1.499,3.973,0.23,8.352,4.142,10.122
		c7.286,3.304,22.82,9.773,41.554,12.291h48.509c18.646-2.522,34.29-8.997,41.555-12.291
		C151.546,326.654,153.274,322.275,151.776,318.305z"/>
	<path fill="#694B4B" d="M147.636,328.43c3.909-1.773,5.639-6.152,4.141-10.125c-6.798-18.011-12.191-48.979-13.355-65.104
		c-2.215-30.682-25.337-55.693-56.592-55.693c-0.079,0-0.158,0-0.237,0.002c-23.983,0.097-32.459,32.805-11.813,45.009
		c1.241,0.733,2.036,1.085,2.036,1.085l18.083,97.114h16.186C124.729,338.191,140.372,331.721,147.636,328.43z"/>
	<path fill="#E6AF78" d="M139.376,356.693l-25.747-12.873c-5.393-2.697-8.798-8.209-8.796-14.234l0.002-23.87H57.096v23.872
		c0,6.026-3.406,11.535-8.797,14.232l-25.747,12.873c-8.086,4.041-13.194,12.306-13.194,21.346v47.02
		c0,4.393,3.563,7.956,7.957,7.956h127.3c4.395,0,7.955-3.563,7.955-7.956v-47.02C152.568,368.999,147.462,360.734,139.376,356.693z
		"/>
	<path fill="#D29B6E" d="M80.965,337.54c8.565,0,16.771-1.765,24.295-4.912c-0.198-1.001-0.428-1.995-0.428-3.045l0.002-23.867
		H57.096v23.87c0,1.053-0.231,2.053-0.431,3.059C64.192,335.771,72.395,337.54,80.965,337.54z"/>
	<path fill="#D5DCED" d="M139.376,356.693l-18.341-9.172c-8.507,13.133-23.257,21.843-40.069,21.843s-31.565-8.71-40.07-21.847
		l-18.343,9.176c-8.086,4.041-13.194,12.306-13.194,21.346v47.02c0,4.395,3.563,7.956,7.957,7.956h127.301
		c4.394,0,7.954-3.563,7.954-7.956v-47.02C152.568,368.999,147.462,360.734,139.376,356.693z"/>
	<path fill="#F0C087" d="M80.965,321.629L80.965,321.629c-24.272,0-44.313-18.111-47.341-41.561
		c-0.439-3.396,1.192-6.728,4.251-8.271c3.664-1.846,8.986-4.962,14.084-9.511c5.675-5.063,9.004-10.402,10.886-14.323
		c1.619-3.375,5.341-5.284,8.971-4.359c28.013,7.145,47.084,21.718,54.004,27.669c1.857,1.598,2.929,3.953,2.736,6.396
		C126.629,302.268,106.058,321.629,80.965,321.629z"/>
	<path fill="#E6AF78" d="M125.817,271.273c-6.918-5.953-25.989-20.526-54.004-27.67c-3.629-0.926-7.352,0.983-8.971,4.359
		c-1.424,2.969-3.778,6.752-7.271,10.613c-0.001,0.009-0.003,0.016-0.005,0.026c-1.083,1.227-2.236,2.459-3.607,3.684
		c-5.098,4.549-10.42,7.665-14.084,9.511c-3.059,1.545-4.69,4.877-4.251,8.272c2.722,21.057,19.197,37.818,40.104,41.015
		c-9.525-6.481-16.631-15.396-16.631-31.281v-11.344c1.808-1.336,3.627-2.666,5.457-4.296c4.421-3.947,8.281-8.512,11.378-13.424
		c21.43,6.686,35.958,17.824,41.467,22.561c1.506,1.321,5.249,4.77,9.627,8.881c1.884-4.535,3.129-9.399,3.529-14.512
		C128.746,275.227,127.675,272.87,125.817,271.273z"/>
	<path fill="#C7CFE2" d="M14.208,363.695c-3.064,4.068-4.85,9.061-4.85,14.344v47.02c0,4.395,3.563,7.956,7.957,7.956h23.868v-40.09
		c0-4.834-2.197-9.403-5.972-12.424L14.208,363.695z"/>
	<path fill="#FF507D" d="M370.309,345.833l-66.567-24.206l-47.74,15.913l-47.737-15.911l-66.569,24.206
		c-12.577,4.574-20.949,16.526-20.949,29.907v49.317c0,4.393,3.562,7.954,7.957,7.954h254.597c4.396,0,7.96-3.563,7.96-7.954
		v-49.317C391.259,362.361,382.887,350.409,370.309,345.833z"/>
	<polygon fill="#707487" points="247.666,353.455 240.088,433.015 271.914,433.015 264.335,353.455 	"/>
	<path fill="#5B5D6E" d="M264.354,364.385h-16.706c-3.077,0-5.569-2.494-5.569-5.572V337.54h27.844v21.272
		C269.922,361.891,267.429,364.385,264.354,364.385z"/>
	<path fill="#D23C69" d="M382.694,354.061c5.368,5.765,8.563,13.444,8.563,21.683v49.315c0,4.395-3.564,7.956-7.96,7.956h-39.779
		v-26.6c0-8.44,3.354-16.536,9.321-22.505L382.694,354.061z"/>
	<path fill="#5A4146" d="M343.52,157.548V90.896c0-8.787-7.125-15.911-15.912-15.911h-95.474c-35.153,0-63.651,28.497-63.651,63.65
		v18.913c0,8.552,1.378,17.048,4.083,25.16l2.65,7.945c0.811,2.434,1.224,4.982,1.224,7.547v4.084h159.126V198.2
		c0-2.565,0.41-5.113,1.223-7.547l2.647-7.945C342.141,174.595,343.52,166.099,343.52,157.548z"/>
	<path fill="#694B4B" d="M208.264,107.308c0,17.851,14.472,32.321,32.322,32.321h4.474l2.162,62.655h88.342v-4.083
		c0-2.566,0.411-5.114,1.224-7.548l2.647-7.946c2.704-8.112,4.085-16.608,4.085-25.159V90.896c0-8.787-7.125-15.911-15.912-15.911
		h-87.021C222.734,74.985,208.264,89.456,208.264,107.308z"/>
	<rect x="208.262" y="265.938" fill="#E6AF78" width="95.479" height="71.604"/>
	<path fill="#D29B6E" d="M208.264,292.838c14.055,8.143,30.327,12.878,47.737,12.878c17.412,0,33.684-4.735,47.739-12.878v-26.902
		h-95.478L208.264,292.838L208.264,292.838z"/>
	<g>
		<path fill="#D23C69" d="M256.001,337.54l-25.375,25.375c-3.411,3.412-9.048,3.026-11.965-0.815l-26.311-34.668l6.882-14.506
			c2.031-4.275,7.327-5.845,11.361-3.361L256.001,337.54z"/>
		<path fill="#D23C69" d="M256.001,337.54l25.376,25.375c3.41,3.412,9.046,3.026,11.963-0.815l26.311-34.668l-6.881-14.506
			c-2.033-4.275-7.326-5.845-11.362-3.361L256.001,337.54z"/>
	</g>
	<path fill="#F0C087" d="M256.001,289.803L256.001,289.803c-43.941,0-79.563-35.622-79.563-79.562v-9.322
		c0-4.22,1.675-8.268,4.659-11.252l6.592-6.591c2.984-2.984,4.659-7.031,4.659-11.252v-19.072c0-3.684,2.474-6.885,6.062-7.732
		c18.815-4.444,77.372-14.972,117.221,14.337c2.587,1.903,4.018,5.029,4.018,8.241v4.226c0,4.221,1.679,8.268,4.66,11.252
		l6.594,6.591c2.982,2.984,4.658,7.03,4.658,11.252v9.322C335.563,254.181,299.942,289.803,256.001,289.803z"/>
	<path fill="#E6AF78" d="M315.634,159.357c-28.029-20.613-65.257-21.506-91.457-18.684c-11.052,1.189-20.183,3.03-25.766,4.348
		c-3.585,0.847-6.06,4.048-6.06,7.732v19.071c0,4.222-1.677,8.268-4.661,11.253l-6.591,6.59c-2.986,2.985-4.661,7.033-4.661,11.253
		v9.32c0,40.682,30.55,74.173,69.948,78.925c-13.728-14.296-22.211-33.67-22.211-55.056v-58.155c0-8.063,5.996-14.802,13.996-15.804
		c19.093-2.394,54.063-3.834,81.478,11.675v-4.229C319.652,164.386,318.218,161.259,315.634,159.357z"/>
	<path fill="#D23C69" d="M129.309,354.061c-5.371,5.765-8.563,13.444-8.563,21.683v49.315c0,4.395,3.562,7.956,7.957,7.956h39.78
		v-26.6c0-8.44-3.354-16.536-9.32-22.505L129.309,354.061z"/>
	<g enable-background="new    ">
		<path d="M201.718,488.022v-25.239c1.945-0.354,4.181-0.53,6.708-0.53c3.221,0,5.637,0.691,7.248,2.074
			c1.61,1.384,2.416,3.206,2.416,5.467c0,2.666-0.929,4.716-2.786,6.149s-4.289,2.15-7.295,2.15c-1.276,0-2.198-0.089-2.767-0.266
			v10.194H201.718z M205.243,465.284v9.702c0.657,0.202,1.604,0.303,2.842,0.303c2.046,0,3.638-0.471,4.775-1.411
			c1.137-0.941,1.706-2.252,1.706-3.933c0-1.578-0.534-2.794-1.601-3.647c-1.068-0.853-2.568-1.278-4.5-1.278
			C207.238,465.02,206.165,465.107,205.243,465.284z"/>
		<path d="M232.756,480.064h-9.323l-2.69,7.958h-3.676l8.944-25.542h4.32l9.019,25.542h-3.79L232.756,480.064z M224.153,477.336
			h7.882c-2.287-6.417-3.625-10.371-4.017-11.862C227.463,467.584,226.174,471.537,224.153,477.336z"/>
		<path d="M245.11,488.022v-22.586h-8.072v-2.956h19.707v2.956h-8.11v22.586H245.11z"/>
		<path d="M259.586,462.48h3.524v25.542h-3.524V462.48z"/>
		<path d="M282.74,473.243v2.918h-10.27v8.943h11.482v2.918h-15.007V462.48h14.401v2.918h-10.877v7.845H282.74z"/>
		<path d="M291.57,488.022h-3.297V462.48h3.941l8.375,12.771c1.908,2.894,3.498,5.646,4.775,8.262
			c-0.254-2.324-0.379-5.785-0.379-10.384V462.48h3.297v25.542h-3.6l-8.301-12.809c-2.084-3.234-3.764-6.089-5.039-8.565
			c0.15,2.464,0.227,5.938,0.227,10.422V488.022z"/>
		<path d="M319.273,488.022v-22.586h-8.072v-2.956h19.705v2.956h-8.109v22.586H319.273z"/>
	</g>
</g>
</svg>
