<?xml version="1.0" encoding="utf-8"?>
<!-- Generator: Adobe Illustrator 15.1.0, SVG Export Plug-In . SVG Version: 6.00 Build 0)  -->
<!DOCTYPE svg PUBLIC "-//W3C//DTD SVG 1.1//EN" "http://www.w3.org/Graphics/SVG/1.1/DTD/svg11.dtd">
<svg version="1.1" id="Capa_1" xmlns="http://www.w3.org/2000/svg" xmlns:xlink="http://www.w3.org/1999/xlink" x="0px" y="0px"
	 width="512px" height="512px" viewBox="0 0 512 512" enable-background="new 0 0 512 512" xml:space="preserve">
<g>
	<path fill="#FFFFFF" d="M32.644,187.6c0,4.138-3.345,7.482-7.483,7.482c-4.139,0-7.512-3.345-7.512-7.482v-59.727
		c0-10.856,4.422-20.721,11.566-27.864c7.143-7.143,17.008-11.565,27.864-11.565c10.829,0,20.693,4.422,27.836,11.565
		c7.143,7.144,11.565,17.008,11.565,27.864v83.906c4.819-1.984,9.95-2.976,15.052-2.976c10.12,0,20.211,3.826,27.893,11.509
		l59.584,59.584c7.37,7.371,11.622,16.271,14.003,25.429c2.154,8.276,2.806,16.78,2.806,25.312v75.715h8.107
		c10.914,0,19.843,8.901,19.843,19.844v65.99c0,10.913-8.929,19.815-19.843,19.815H84.972c-10.942,0-19.842-8.901-19.842-19.815
		v-65.99c0-10.941,8.9-19.844,19.842-19.844h8.079v-22.705c0-2.41-0.34-4.564-1.049-6.465c-0.68-1.785-1.757-3.43-3.26-4.959
		l-59.584-59.586c-3.742-3.713-6.577-8.078-8.504-12.783c-2.013-4.849-3.005-9.979-3.005-15.082V221.56
		c0-4.139,3.373-7.484,7.512-7.484c4.139,0,7.483,3.346,7.483,7.484v63.211c0,3.231,0.624,6.436,1.843,9.412
		c1.162,2.834,2.919,5.5,5.272,7.853l59.584,59.585c3.033,3.031,5.216,6.463,6.662,10.29c1.389,3.685,2.04,7.625,2.04,11.735v22.705
		h92.835v-75.715c0-6.83-0.482-14.428-2.353-21.57c-1.757-6.746-4.819-13.268-10.12-18.568l-59.612-59.584
		c-4.734-4.733-10.999-7.115-17.263-7.115c-6.52,0-12.614,2.523-17.263,7.115c-4.592,4.621-7.086,10.744-7.086,17.264
		c0,6.264,2.353,12.529,7.086,17.263l44.476,44.447c2.92,2.92,2.92,7.683,0,10.603c-2.948,2.92-7.682,2.92-10.63,0l-44.447-44.448
		c-7.653-7.682-11.508-17.773-11.508-27.864c0-9.071,3.118-18.17,9.326-25.484v-94.82c0-6.719-2.75-12.812-7.171-17.263
		c-4.451-4.423-10.545-7.172-17.235-7.172c-6.718,0-12.812,2.749-17.263,7.172c-4.422,4.45-7.172,10.544-7.172,17.263L32.644,187.6
		L32.644,187.6z M393.919,434.159c6.917,0,13.181,2.807,17.689,7.313c4.534,4.536,7.342,10.8,7.342,17.718
		c0,6.888-2.808,13.152-7.342,17.688c-4.508,4.535-10.771,7.342-17.689,7.342c-6.917,0-13.152-2.807-17.688-7.342
		c-4.536-4.536-7.343-10.802-7.343-17.688c0-6.917,2.807-13.182,7.343-17.718C380.767,436.966,387.003,434.159,393.919,434.159z
		 M401.006,452.103c-1.813-1.813-4.309-2.946-7.087-2.946s-5.271,1.133-7.086,2.946c-1.814,1.814-2.948,4.31-2.948,7.088
		c0,2.749,1.134,5.271,2.948,7.087c1.814,1.813,4.309,2.92,7.086,2.92c2.778,0,5.273-1.105,7.087-2.92
		c1.814-1.814,2.948-4.338,2.948-7.087C403.955,456.411,402.82,453.917,401.006,452.103z M118.081,434.159
		c6.888,0,13.152,2.807,17.688,7.313c4.536,4.536,7.313,10.8,7.313,17.718c0,6.888-2.778,13.152-7.313,17.688
		c-4.536,4.535-10.8,7.342-17.688,7.342c-6.917,0-13.181-2.807-17.717-7.342c-4.507-4.536-7.313-10.802-7.313-17.688
		c0-6.917,2.807-13.182,7.313-17.718C104.899,436.966,111.164,434.159,118.081,434.159z M125.167,452.103
		c-1.814-1.813-4.337-2.946-7.086-2.946c-2.778,0-5.301,1.133-7.115,2.946c-1.814,1.814-2.92,4.31-2.92,7.088
		c0,2.749,1.106,5.271,2.92,7.087c1.814,1.813,4.337,2.92,7.115,2.92c2.75,0,5.272-1.105,7.086-2.92s2.919-4.338,2.919-7.087
		C128.086,456.411,126.981,453.917,125.167,452.103z M179.195,70.272c2.919-2.92,7.653-2.92,10.602,0
		c2.919,2.919,2.919,7.682,0,10.602l-41.811,41.782c-0.17,0.198-0.17,0.595,0,0.794l28.573,28.546c0.17,0.198,0.595,0.198,0.765,0
		l12.189-12.161c6.832-6.859,15.846-10.261,24.86-10.261c8.986,0,18,3.401,24.86,10.261c6.832,6.832,10.262,15.846,10.262,24.86
		c0,9.014-3.43,18-10.262,24.859l-12.189,12.161c-0.17,0.198-0.17,0.595,0,0.794l28.573,28.546c0.17,0.17,0.595,0.17,0.766,0
		c9.609-9.439,19.135-18.966,28.545-28.546c0.198-0.199,0.198-0.596,0-0.794l-12.16-12.161
		c-6.832-6.859-10.263-15.846-10.263-24.859h0.028c0-9.015,3.402-18.028,10.232-24.86c6.832-6.831,15.847-10.233,24.859-10.233
		v-0.027c9.015,0,18.029,3.401,24.86,10.261c4.053,4.054,8.021,8.192,12.16,12.161c0.198,0.17,0.596,0.198,0.794,0l28.545-28.546
		c0.197-0.199,0.197-0.596,0-0.794l-29.168-29.169c-0.426-0.425-0.794-0.878-1.077-1.36c-1.843-2.722-2.749-5.867-2.749-9.014
		c0-3.317,1.021-6.634,3.061-9.468c0.255-0.312,0.511-0.624,0.767-0.907l12.784-12.784c3.911-3.912,5.867-9.071,5.867-14.258
		c0-5.161-1.956-10.349-5.867-14.26c-3.912-3.912-9.071-5.868-14.259-5.868c-5.159,0-10.347,1.956-14.258,5.868l-12.784,12.785
		c-2.466,2.494-6.973,3.855-10.375,3.855c-3.628,0-7.937-1.418-10.544-4.025l-28.999-28.999c-0.17-0.171-0.595-0.171-0.766,0
		l-41.811,41.812c-2.919,2.92-7.682,2.92-10.602,0c-2.919-2.948-2.919-7.682,0-10.63L245.498,3.94
		C248.049,1.389,252.471,0,255.986,0c3.4,0,7.908,1.361,10.375,3.827l29.197,29.196c0.17,0.17,0.595,0.17,0.765,0l12.161-12.188
		c6.859-6.831,15.874-10.262,24.859-10.262c9.015,0,18.028,3.431,24.86,10.262c6.86,6.86,10.261,15.874,10.261,24.861
		c0,9.014-3.4,18.027-10.261,24.859l-12.161,12.188c-0.17,0.171-0.17,0.596,0,0.766l28.885,28.885
		c2.693,2.693,4.11,6.917,4.11,10.659c0,3.4-1.36,7.909-3.827,10.375l-29.564,29.565c-2.637,2.637-6.916,4.054-10.603,4.054
		c-3.4,0-7.909-1.36-10.375-3.827l-12.784-12.784c-7.852-7.851-20.664-7.851-28.517,0c-7.853,7.853-7.853,20.665,0,28.517
		l12.302,12.303c2.834,2.834,4.338,6.859,4.338,10.856c0,3.401-1.39,7.909-3.855,10.375l-29.225,29.227
		c-2.893,2.891-6.832,4.393-10.943,4.393c-3.401,0-7.909-1.36-10.375-3.826L216.328,213c-2.835-2.864-4.337-6.861-4.337-10.887
		c0-3.401,1.36-7.909,3.827-10.375l12.784-12.784c3.912-3.912,5.896-9.1,5.896-14.258c0-5.188-1.984-10.347-5.896-14.259
		c-3.912-3.911-9.071-5.867-14.23-5.867c-5.187,0-10.346,1.956-14.258,5.867l-12.302,12.303c-2.834,2.835-6.86,4.309-10.856,4.309
		c-3.402,0-7.909-1.36-10.403-3.827l-29.48-29.48c-2.693-2.692-4.138-6.889-4.138-10.687c0-3.402,1.389-7.909,3.855-10.375
		L179.195,70.272z M427.028,421.347H288.074c-2.664,0-4.848,2.211-4.848,4.849v65.99c0,2.638,2.184,4.818,4.848,4.818h138.955
		c2.636,0,4.847-2.182,4.847-4.818v-65.99C431.875,423.558,429.665,421.347,427.028,421.347L427.028,421.347z M288.074,406.352
		h8.107v-75.715c0-7.767,0.51-16.554,2.805-25.312c2.382-9.157,6.634-18.058,14.004-25.429l17.772-17.773
		c2.92-2.948,7.683-2.948,10.603,0c2.92,2.919,2.92,7.682,0,10.602l-17.773,17.772c-5.301,5.301-8.361,11.821-10.147,18.567
		c-1.814,6.975-2.324,14.373-2.324,21.571v75.715h92.835v-22.706c0-4.109,0.652-8.051,2.04-11.734
		c1.446-3.827,3.628-7.258,6.662-10.29l59.584-59.585c2.353-2.354,4.109-5.018,5.272-7.854c1.22-2.977,1.814-6.18,1.814-9.41
		V127.872c0-6.719-2.75-12.812-7.172-17.263c-4.422-4.423-10.518-7.172-17.234-7.172c-6.689,0-12.812,2.749-17.235,7.172
		c-4.422,4.45-7.171,10.544-7.171,17.263v94.82c6.208,7.314,9.297,16.413,9.297,25.484c0,10.092-3.826,20.184-11.508,27.864
		l-44.446,44.448c-2.921,2.92-7.683,2.92-10.603,0s-2.92-7.684,0-10.603l44.447-44.448c4.733-4.732,7.115-10.999,7.115-17.263
		c0-6.265-2.354-12.529-7.086-17.264c-4.621-4.592-10.801-7.115-17.292-7.115c-6.266,0-12.529,2.382-17.264,7.115l-17.772,17.773
		c-2.948,2.948-7.683,2.948-10.603,0c-2.948-2.92-2.948-7.653,0-10.601l17.773-17.774c7.682-7.683,17.772-11.509,27.865-11.509
		c5.13,0,10.261,0.991,15.079,2.976V127.87c0-10.856,4.423-20.721,11.566-27.864c7.143-7.143,16.979-11.565,27.836-11.565
		s20.693,4.422,27.836,11.565c7.145,7.144,11.594,17.008,11.594,27.864V284.77c0,5.102-1.021,10.232-3.005,15.082
		c-1.956,4.705-4.79,9.069-8.504,12.782l-59.584,59.585c-1.531,1.53-2.58,3.176-3.26,4.96c-0.709,1.899-1.049,4.054-1.049,6.464
		v22.706h8.079c10.914,0,19.842,8.901,19.842,19.844v65.99c0,10.913-8.929,19.815-19.842,19.815H288.074
		c-10.941,0-19.842-8.901-19.842-19.815v-65.99C268.23,415.253,277.132,406.352,288.074,406.352L288.074,406.352z M84.972,421.347
		c-2.665,0-4.847,2.211-4.847,4.849v65.99c0,2.638,2.183,4.818,4.847,4.818h138.954c2.636,0,4.847-2.182,4.847-4.818v-65.99
		c0-2.638-2.211-4.849-4.847-4.849H84.972z"/>
</g>
</svg>
