<?xml version="1.0" encoding="utf-8"?>
<!-- Generator: Adobe Illustrator 15.1.0, SVG Export Plug-In . SVG Version: 6.00 Build 0)  -->
<!DOCTYPE svg PUBLIC "-//W3C//DTD SVG 1.1//EN" "http://www.w3.org/Graphics/SVG/1.1/DTD/svg11.dtd">
<svg version="1.1" id="Capa_1" xmlns="http://www.w3.org/2000/svg" xmlns:xlink="http://www.w3.org/1999/xlink" x="0px" y="0px"
	 width="50px" height="50px" viewBox="0 0 50 50" enable-background="new 0 0 50 50" xml:space="preserve">
<g>
	<ellipse fill="#FFFFFF" cx="24.938" cy="25.25" rx="23.938" ry="23.75"/>
	<path fill="#48BC22" d="M25,0C11.215,0,0,11.214,0,25c0,13.785,11.215,25,25,25s25-11.215,25-25C50,11.214,38.785,0,25,0z
		 M25,48.077C12.276,48.077,1.923,37.725,1.923,25C1.923,12.276,12.276,1.923,25,1.923c12.725,0,23.077,10.353,23.077,23.077
		C48.077,37.725,37.725,48.077,25,48.077z"/>
	<path fill="#48BC22" d="M36.781,14.746L22.003,31.371L13.1,24.249c-0.414-0.332-1.021-0.264-1.351,0.15
		c-0.332,0.416-0.265,1.021,0.15,1.352l9.616,7.692c0.177,0.141,0.389,0.211,0.601,0.211c0.266,0,0.53-0.109,0.719-0.324
		l15.384-17.307c0.354-0.396,0.318-1.005-0.078-1.356C37.741,14.313,37.135,14.348,36.781,14.746z"/>
</g>
</svg>
