<?xml version="1.0" encoding="utf-8"?>
<!-- Generator: Adobe Illustrator 15.1.0, SVG Export Plug-In . SVG Version: 6.00 Build 0)  -->
<!DOCTYPE svg PUBLIC "-//W3C//DTD SVG 1.1//EN" "http://www.w3.org/Graphics/SVG/1.1/DTD/svg11.dtd">
<svg version="1.1" id="Capa_1" xmlns="http://www.w3.org/2000/svg" xmlns:xlink="http://www.w3.org/1999/xlink" x="0px" y="0px"
	 width="50px" height="50px" viewBox="0 0 50 50" enable-background="new 0 0 50 50" xml:space="preserve">
<g>
	<circle fill="#FFFFFF" cx="24.999" cy="25" r="23.875"/>
	<path fill="#DD3737" d="M25,0C11.215,0,0,11.214,0,25c0,13.785,11.215,25,25,25s25-11.215,25-25C50,11.214,38.785,0,25,0z
		 M25,48.077C12.276,48.077,1.923,37.725,1.923,25C1.923,12.276,12.276,1.923,25,1.923c12.725,0,23.077,10.353,23.077,23.077
		C48.077,37.725,37.725,48.077,25,48.077z"/>
	<path fill="#DD3737" d="M32.152,15.708L17.374,32.333l0.098,0.104c0.537-0.817-0.021-0.265-0.351,0.149
		c-0.332,0.416-1.265,1.021-0.85,1.353l0.615,0.467c0.177,0.141,0.389,0.211,0.601,0.211c0.266,0,0.53-0.109,0.719-0.324
		L33.59,16.984c0.354-0.396,0.318-1.005-0.078-1.356C33.111,15.274,32.506,15.31,32.152,15.708z"/>
	<path fill="#DD3737" d="M34.293,32.152L17.667,17.374l-0.104,0.098c0.817,0.537,0.264-0.021-0.15-0.351
		c-0.416-0.332-1.021-1.265-1.352-0.85l-0.467,0.615c-0.141,0.177-0.211,0.389-0.211,0.601c0,0.266,0.109,0.53,0.324,0.719
		L33.016,33.59c0.396,0.354,1.006,0.318,1.356-0.079C34.727,33.111,34.689,32.506,34.293,32.152z"/>
</g>
</svg>
