<?xml version="1.0" encoding="utf-8"?>
<!-- Generator: Adobe Illustrator 15.1.0, SVG Export Plug-In . SVG Version: 6.00 Build 0)  -->
<!DOCTYPE svg PUBLIC "-//W3C//DTD SVG 1.1//EN" "http://www.w3.org/Graphics/SVG/1.1/DTD/svg11.dtd">
<svg version="1.1" id="Layer_1" xmlns="http://www.w3.org/2000/svg" xmlns:xlink="http://www.w3.org/1999/xlink" x="0px" y="0px"
	 width="148px" height="26px" viewBox="0 0 148 26" enable-background="new 0 0 148 26" xml:space="preserve">
<title>Plusadmin_logo Copy</title>
<desc>Created with Sketch.</desc>
<g>
	<g>
		<g>
			<g>
				<g>
					<g>
						<defs>
							<path id="SVGID_1_" d="M15.908,5.001h1.8c4.35,0,7.919,3.569,7.919,7.919v7.918h-5.313c-4.656,0-9.616-4.464-11.12-9.986
								c0.111,3.512,1.193,7.175,4.566,9.986h-1.8c-4.351,0-7.919-3.566-7.919-7.918V5.001h5.313c4.656,0,9.616,4.465,11.119,9.988
								C20.364,11.478,19.28,7.813,15.908,5.001 M1.567,2.526V12.92c0,5.716,4.678,10.393,10.394,10.393h16.141V12.92
								c0-5.716-4.678-10.394-10.394-10.394H1.567z"/>
						</defs>
						<clipPath id="SVGID_2_">
							<use xlink:href="#SVGID_1_"  overflow="visible"/>
						</clipPath>
						
							<linearGradient id="SVGID_3_" gradientUnits="userSpaceOnUse" x1="1174.2061" y1="-182.7646" x2="1174.2944" y2="-182.7646" gradientTransform="matrix(-302.2244 -257.8459 257.8459 -302.2244 402025.4063 247552.7969)">
							<stop  offset="0" style="stop-color:#48BFAB"/>
							<stop  offset="1" style="stop-color:#93C83E"/>
						</linearGradient>
						<polygon clip-path="url(#SVGID_2_)" fill="url(#SVGID_3_)" points="15.25,40.077 -13.365,14.813 10.419,-14.237 
							40.032,11.028 						"/>
					</g>
				</g>
			</g>
		</g>
	</g>
</g>
<polygon fill="#FFFFFF" points="32.685,5.193 35.772,5.193 43.006,16.318 43.006,5.193 46.224,5.193 46.224,22.1 43.128,22.1 
	35.903,11.009 35.903,22.1 32.685,22.1 "/>
<path fill="#FFFFFF" d="M50.311,9.595h3.172v6.023c0,1.172,0.081,1.987,0.243,2.44c0.161,0.457,0.42,0.811,0.777,1.063
	c0.357,0.255,0.796,0.38,1.32,0.38c0.521,0,0.965-0.124,1.33-0.374c0.365-0.248,0.635-0.614,0.812-1.099
	c0.132-0.357,0.196-1.129,0.196-2.311V9.595h3.138v5.297c0,2.184-0.173,3.678-0.518,4.483c-0.422,0.979-1.042,1.731-1.862,2.257
	s-1.862,0.788-3.127,0.788c-1.372,0-2.479-0.308-3.327-0.92c-0.847-0.612-1.443-1.467-1.787-2.563
	c-0.246-0.758-0.368-2.137-0.368-4.137L50.311,9.595L50.311,9.595z"/>
<polygon fill="#FFFFFF" points="65.415,4.987 68.553,4.987 68.553,9.595 70.414,9.595 70.414,12.296 68.553,12.296 68.553,22.1 
	65.415,22.1 65.415,12.296 63.806,12.296 63.806,9.595 65.415,9.595 "/>
<path fill="#FFFFFF" d="M71.944,9.595h2.689v1.574c0.29-0.621,0.678-1.092,1.161-1.413c0.481-0.322,1.011-0.484,1.586-0.484
	c0.406,0,0.831,0.109,1.274,0.323l-0.977,2.701c-0.367-0.186-0.671-0.276-0.908-0.276c-0.481,0-0.892,0.298-1.224,0.897
	c-0.334,0.597-0.501,1.769-0.501,3.517l0.012,0.609V22.1h-3.114L71.944,9.595L71.944,9.595z"/>
<path fill="#FFFFFF" d="M82.016,4.446c0.549,0,1.021,0.2,1.416,0.598c0.392,0.398,0.588,0.881,0.588,1.448
	c0,0.56-0.191,1.035-0.582,1.431c-0.39,0.394-0.856,0.592-1.398,0.592c-0.559,0-1.033-0.201-1.426-0.604
	c-0.395-0.402-0.592-0.891-0.592-1.465c0-0.552,0.195-1.023,0.584-1.413C80.994,4.641,81.466,4.446,82.016,4.446 M80.445,9.595
	h3.138V22.1h-3.138V9.595z"/>
<path fill="#FFFFFF" d="M96.247,4.768h3.138V22.1h-3.138v-1.32c-0.613,0.582-1.228,1-1.845,1.258
	c-0.615,0.256-1.281,0.385-2.002,0.385c-1.616,0-3.012-0.626-4.19-1.879c-1.178-1.252-1.769-2.811-1.769-4.672
	c0-1.932,0.572-3.512,1.711-4.746c1.141-1.235,2.525-1.852,4.156-1.852c0.75,0,1.455,0.143,2.113,0.425
	c0.657,0.284,1.266,0.708,1.824,1.275L96.247,4.768L96.247,4.768L96.247,4.768z M92.949,12.169c-0.971,0-1.775,0.342-2.418,1.028
	c-0.643,0.687-0.963,1.565-0.963,2.638c0,1.081,0.326,1.972,0.979,2.666c0.651,0.698,1.457,1.048,2.411,1.048
	c0.984,0,1.801-0.344,2.452-1.027c0.647-0.688,0.973-1.586,0.973-2.696c0-1.089-0.325-1.968-0.973-2.644
	C94.762,12.507,93.939,12.169,92.949,12.169"/>
<path fill="#FFFFFF" d="M109.016,9.272c1.18,0,2.287,0.295,3.326,0.886c1.039,0.59,1.85,1.391,2.43,2.401
	c0.584,1.013,0.875,2.104,0.875,3.276c0,1.179-0.293,2.282-0.879,3.312c-0.586,1.023-1.385,1.828-2.396,2.405
	c-1.013,0.579-2.127,0.869-3.347,0.869c-1.793,0-3.322-0.639-4.59-1.914c-1.27-1.274-1.903-2.823-1.903-4.647
	c0-1.955,0.718-3.583,2.149-4.884C105.938,9.84,107.383,9.272,109.016,9.272 M109.064,12.227c-0.973,0-1.785,0.339-2.434,1.017
	c-0.648,0.677-0.973,1.546-0.973,2.604c0,1.088,0.318,1.969,0.961,2.645c0.643,0.674,1.451,1.012,2.436,1.012
	c0.982,0,1.799-0.341,2.451-1.023s0.979-1.56,0.979-2.633c0-1.072-0.322-1.943-0.963-2.614
	C110.883,12.563,110.063,12.227,109.064,12.227"/>
<path fill="#FFFFFF" d="M131.035,12.124l-2.612,1.437c-0.491-0.514-0.978-0.871-1.457-1.069c-0.479-0.198-1.041-0.297-1.687-0.297
	c-1.174,0-2.12,0.348-2.848,1.048c-0.725,0.699-1.088,1.6-1.088,2.689c0,1.064,0.348,1.934,1.049,2.607
	c0.696,0.671,1.612,1.007,2.75,1.007c1.401,0,2.496-0.478,3.278-1.437l2.476,1.693c-1.342,1.746-3.234,2.617-5.68,2.617
	c-2.197,0-3.921-0.65-5.164-1.953c-1.246-1.304-1.869-2.828-1.869-4.574c0-1.213,0.303-2.324,0.909-3.346
	c0.603-1.018,1.449-1.818,2.531-2.401c1.085-0.583,2.297-0.874,3.64-0.874c1.239,0,2.355,0.248,3.344,0.742
	C129.6,10.508,130.406,11.212,131.035,12.124"/>
<polygon fill="#FFFFFF" points="134.471,4.768 137.607,4.768 137.607,14.751 142.229,9.595 146.17,9.595 140.782,15.588 
	146.813,22.1 142.919,22.1 137.607,16.337 137.607,22.1 134.471,22.1 "/>
</svg>
